# Blender v2.79 (sub 0) OBJ File: ''
# www.blender.org
mtllib key.mtl
o pCube2
v -16.273514 464.537506 39.823185
v -1.508109 466.066589 41.925369
v -1.915046 504.929749 52.600666
v -20.423159 504.434143 49.977856
v -18.992197 544.183960 39.823196
v -1.760057 548.886780 41.925381
v -1.915046 559.446167 -2.904327
v -20.423159 554.338562 -2.820196
v -18.992195 544.183960 -39.823162
v -1.760057 548.886780 -41.804420
v -1.915046 504.547607 -52.479713
v -20.423159 504.066589 -49.977825
v -16.273514 299.536743 -10.010323
v -1.508109 294.490601 -10.463089
v -1.915046 292.888428 -0.064660
v -20.423159 297.996002 -0.119020
v 20.423159 454.382843 -0.473398
v 16.273514 464.537506 -39.823174
v 12.523099 473.715240 -30.645477
v 15.716412 465.900818 -0.364295
v 20.423159 504.066589 -49.977825
v 18.992195 544.183960 -39.823162
v 12.523099 535.006165 -30.645466
v 15.716412 504.134399 -38.459873
v 15.716412 542.820618 -2.170248
v 20.423159 554.338562 -2.820196
v 18.992197 544.183960 39.823196
v 12.523099 535.006165 30.645504
v 20.423159 504.434143 49.977856
v 16.273514 464.537506 39.823185
v 12.523099 473.715240 30.645493
v 15.716412 504.417175 38.459904
v -16.273514 464.537506 -39.823174
v -20.423159 454.382843 -0.473398
v -15.716412 465.900818 -0.364295
v -12.523099 473.715240 -30.645477
v -15.716412 504.417175 38.459904
v -12.523099 473.715240 30.645493
v -15.716412 542.820618 -2.170248
v -12.523099 535.006165 30.645504
v -15.716412 504.134399 -38.459873
v -12.523099 535.006165 -30.645466
v -2.671838 469.330566 -0.331806
v -2.172855 476.448059 -27.912615
v -2.671838 504.154602 -35.030151
v -2.172855 532.273315 -27.912607
v -2.671838 504.412140 35.030182
v -2.172855 476.448059 27.912636
v -2.671838 539.390869 -1.976713
v -2.172855 532.273315 27.912643
v -1.508109 294.490601 10.583964
v -16.273514 299.536743 10.010282
v -1.508109 466.066589 -41.804432
v -1.508109 449.162933 -10.463063
v -16.273514 448.281647 -10.010298
v 20.423159 446.740906 -0.118995
v 16.273514 448.281647 -10.010298
v -20.423159 446.740906 -0.118995
v 16.273514 448.281647 10.010306
v -16.273514 448.281647 10.010306
v -1.508109 449.162933 10.583990
v -1.508109 365.095856 -10.463078
v -16.273514 367.436249 -10.010311
v 20.423159 365.895508 -0.119009
v 16.273514 367.436249 -10.010311
v -20.423159 365.895508 -0.119009
v 16.273514 367.436249 10.010293
v -16.273514 367.436249 10.010293
v -1.508109 365.095856 10.583976
v 16.273514 316.502991 -10.010320
v 20.423159 314.962250 -0.119017
v 20.423159 297.996002 -0.119020
v 16.273514 299.536743 -10.010323
v -16.273514 316.502991 -10.010320
v -1.508109 312.132935 -10.463086
v -20.423159 314.962250 -0.119017
v -16.273514 316.502991 10.010284
v -1.508109 312.132935 10.583967
v 16.273514 316.502991 10.010284
v 16.273514 299.536743 10.010282
v 16.273514 329.660583 -10.010318
v 20.423159 328.119843 -0.119015
v -16.273514 329.660583 -52.336372
v -1.508109 325.814850 -54.959183
v -1.508109 312.132935 -54.959187
v -16.273514 316.502991 -52.336372
v -20.423159 328.119843 -0.119015
v -16.273514 329.660583 -10.010318
v -16.273514 329.660583 10.010286
v -1.508109 325.814850 10.583970
v 16.273514 329.660583 10.010286
v 16.273514 353.370636 -10.010314
v 20.423159 351.829926 -0.119011
v -16.273514 353.370636 -10.010314
v -1.508109 350.469757 -10.463079
v -1.508109 325.814850 -10.463083
v -20.423159 351.829926 -0.119011
v -16.273514 353.370636 10.010290
v -1.508109 350.469757 10.583974
v 16.273514 353.370636 10.010290
v -16.273514 367.436249 -52.336365
v -1.508109 365.095856 -54.959175
v -1.508109 350.469757 -54.959179
v -16.273514 353.370636 -52.336369
v 16.273514 316.502991 -52.336372
v 16.273514 329.660583 -52.336372
v 16.273514 353.370636 -52.336369
v 16.273514 367.436249 -52.336365
vt 0.875000 0.124264
vt 0.875000 0.250000
vt 0.875000 0.250000
vt 0.875000 0.124264
vt 0.757054 0.250000
vt 0.757054 0.250000
vt 0.625000 0.250000
vt 0.625000 0.250000
vt 0.625000 0.125184
vt 0.625000 0.000000
vt 0.625000 0.000000
vt 0.625000 0.125184
vt 0.375000 0.000000
vt 0.375000 0.125184
vt 0.375000 0.125184
vt 0.375000 0.000000
vt 0.375000 0.250000
vt 0.242946 0.250000
vt 0.242946 0.250000
vt 0.375000 0.250000
vt 0.125000 0.250000
vt 0.125000 0.124264
vt 0.125000 0.124264
vt 0.125000 0.250000
vt 0.875000 0.000000
vt 0.875000 0.000000
vt 0.125000 0.000000
vt 0.125000 0.000000
vt 0.625000 0.750000
vt 0.625000 0.873816
vt 0.625000 0.873816
vt 0.625000 0.750000
vt 0.375000 0.873816
vt 0.375000 0.750000
vt 0.375000 0.750000
vt 0.375000 0.873816
vt 0.625000 1.000000
vt 0.625000 1.000000
vt 0.375000 1.000000
vt 0.375000 1.000000
vt 0.625000 0.750000
vt 0.625000 0.873816
vt 0.625000 0.873816
vt 0.625000 0.750000
vt 0.375000 0.873816
vt 0.375000 0.750000
vt 0.375000 0.750000
vt 0.375000 0.873816
vt 0.375000 1.000000
vt 0.375000 1.000000
vt 0.625000 1.000000
vt 0.625000 1.000000
vt 0.625000 0.750000
vt 0.625000 0.873816
vt 0.375000 0.873816
vt 0.375000 0.750000
vt 0.375000 1.000000
vt 0.625000 1.000000
vt 0.625000 0.750000
vt 0.625000 0.873816
vt 0.375000 0.873816
vt 0.375000 0.750000
vt 0.375000 1.000000
vt 0.625000 1.000000
vt 0.625000 0.750000
vt 0.625000 0.750000
vt 0.375000 0.750000
vt 0.375000 0.750000
vt 0.625000 0.750000
vt 0.625000 0.750000
vt 0.375000 0.750000
vt 0.375000 0.750000
vt 0.488340 0.000000
vt 0.488340 0.125184
vt 0.488340 0.250000
vt 0.488340 0.382054
vt 0.375000 0.382054
vt 0.375000 0.500000
vt 0.488340 0.500000
vt 0.488340 0.625736
vt 0.375000 0.625736
vt 0.488340 0.750000
vt 0.488340 0.873816
vt 0.751184 0.000000
vt 0.751184 0.000000
vt 0.248816 0.000000
vt 0.248816 0.000000
vt 0.000000 0.000000
vt 0.495264 0.000000
vt 0.495264 0.414221
vt 0.000000 0.414221
vt 0.497058 1.000000
vt 0.497058 0.585779
vt 1.000000 0.585779
vt 1.000000 1.000000
vt 0.499266 1.000000
vt 0.499266 0.585779
vt 1.000000 0.585779
vt 1.000000 1.000000
vt 0.000000 0.000000
vt 0.528215 0.000000
vt 0.528215 0.414221
vt 0.000000 0.414221
vt 1.000000 0.000000
vt 1.000000 0.414221
vt 0.488340 1.000000
vt 1.000000 0.414221
vt 1.000000 0.000000
vt 0.488340 0.750000
vt 0.375000 0.750000
vt 0.000000 0.585779
vt 0.000000 1.000000
vt 0.000000 0.585779
vt 0.000000 1.000000
vt 0.488340 0.750000
vt 0.625000 0.750000
vt 0.625000 0.873816
vt 0.375000 0.873816
vt 0.625000 1.000000
vt 0.488340 1.000000
vt 0.375000 1.000000
vt 0.488340 1.000000
vt 0.488340 0.750000
vt 0.488340 1.000000
vt 0.488340 0.750000
vt 0.488340 1.000000
vt 0.488340 0.750000
vt 0.488340 0.750000
vt 0.488340 1.000000
vt 0.488340 0.750000
vt 0.488340 0.750000
vt 0.488340 1.000000
vt 0.488340 0.750000
vt 0.488340 0.750000
vt 0.625000 0.500000
vt 0.625000 0.625736
vt 0.625000 0.382054
vt 0.495264 1.000000
vt 0.000000 1.000000
vt 0.000000 0.000000
vt 0.497058 0.000000
vt 1.000000 0.000000
vt 0.528215 1.000000
vt 1.000000 1.000000
vt 0.000000 1.000000
vt 0.000000 0.000000
vt 0.499266 0.000000
vt 1.000000 0.000000
vt 1.000000 1.000000
vn 0.8888 -0.0572 0.4548
vn 0.8878 -0.4570 -0.0544
vn 0.9257 0.0000 -0.3783
vn -0.9257 0.0000 -0.3783
vn -0.8878 -0.4570 -0.0544
vn -0.8888 -0.0572 0.4548
vn -0.8901 -0.4517 0.0611
vn 0.8901 -0.4517 0.0611
vn 0.9257 -0.0000 0.3783
vn -0.9257 -0.0000 0.3783
vn 0.8889 -0.0576 -0.4544
vn -0.8889 -0.0576 -0.4544
vn 0.9221 0.0000 -0.3869
vn -0.9221 0.0000 -0.3869
vn 0.9254 -0.0000 0.3791
vn -0.9254 -0.0000 0.3791
vn 1.0000 0.0000 0.0000
vn -1.0000 0.0000 0.0000
vn -0.1202 -0.2603 0.9580
vn 0.0013 -0.2611 0.9653
vn -0.0016 -0.2611 0.9653
vn -0.2697 0.9359 0.2265
vn 0.0016 0.9721 0.2344
vn -0.0010 0.9721 0.2344
vn -0.1549 0.2393 -0.9585
vn 0.0016 0.2417 -0.9703
vn -0.0008 0.2417 -0.9703
vn -0.2877 -0.9346 -0.2094
vn 0.0160 -0.9783 -0.2067
vn -0.0163 -0.9780 -0.2079
vn 0.9899 0.0962 -0.1042
vn 0.9511 0.3076 -0.0274
vn 0.9257 0.3783 -0.0000
vn -0.9511 0.3076 -0.0274
vn -0.9899 0.0962 -0.1042
vn -0.9257 0.3783 -0.0000
vn -0.3158 0.6698 0.6720
vn -0.2795 0.9602 -0.0003
vn -0.0070 1.0000 -0.0001
vn 0.0052 0.7058 0.7084
vn -0.2795 -0.0002 0.9602
vn -0.0070 -0.0001 1.0000
vn 0.0054 -0.6839 0.7295
vn -0.3157 -0.6516 0.6897
vn -0.2795 -0.0000 -0.9602
vn -0.0070 0.0000 -1.0000
vn 0.0051 0.7099 -0.7043
vn -0.3158 0.6733 -0.6685
vn -0.3157 -0.6876 -0.6539
vn -0.2794 -0.9602 -0.0020
vn -0.0070 -1.0000 -0.0006
vn 0.0049 -0.7269 -0.6867
vn -0.2696 0.9276 -0.2588
vn -0.0011 0.9635 -0.2677
vn 0.0017 0.9635 -0.2677
vn 0.9511 0.3077 0.0269
vn 0.9892 0.1086 0.0984
vn -0.2892 -0.9351 0.2049
vn -0.0160 -0.9789 0.2035
vn 0.0158 -0.9792 0.2023
vn -0.9892 0.1086 0.0984
vn -0.9511 0.3077 0.0269
vn -0.1133 -0.2625 -0.9583
vn -0.0015 -0.2631 -0.9648
vn 0.0013 -0.2631 -0.9648
vn -0.1616 0.2412 0.9569
vn -0.0008 0.2440 0.9698
vn 0.0016 0.2439 0.9698
vn 0.0324 -0.8786 -0.4764
vn -0.0001 -0.8791 -0.4767
vn 0.0001 -0.8791 -0.4767
vn 0.9324 -0.2833 -0.2244
vn -0.9324 -0.2833 -0.2244
vn 0.9391 -0.2668 0.2164
vn -0.0001 -0.8791 0.4767
vn 0.0285 -0.8787 0.4765
vn 0.0000 -0.8791 0.4767
vn -0.9391 -0.2668 0.2164
vn -0.0306 0.0000 -0.9995
vn 0.0000 0.0000 -1.0000
vn 0.0001 0.0000 -1.0000
vn 0.0001 -0.0000 1.0000
vn -0.0388 -0.0000 0.9992
vn 0.0002 -0.0000 1.0000
vn -0.0002 0.0000 -1.0000
vn 0.0003 0.0000 -1.0000
vn -0.0002 -0.0000 1.0000
vn 0.0003 -0.0000 1.0000
vn -0.1749 0.0000 -0.9846
vn -0.0008 -0.0000 -1.0000
vn 0.0011 0.0000 -1.0000
vn -0.0001 0.0000 -1.0000
vn 0.0002 0.0000 -1.0000
vn -0.0005 0.0000 -1.0000
vn 0.0007 0.0000 -1.0000
vn -0.0001 -0.0000 1.0000
vn 0.2520 0.9677 0.0000
vn 0.0001 1.0000 0.0000
vn -0.0010 1.0000 -0.0000
vn -0.0002 -1.0000 0.0000
vn -0.2838 -0.9589 0.0000
vn 0.0011 -1.0000 -0.0000
vn 0.1566 0.9877 0.0000
vn -0.0006 1.0000 0.0000
vn -0.0001 -1.0000 -0.0000
vn -0.1928 -0.9812 0.0000
vn 0.0007 -1.0000 -0.0000
vn 0.1289 0.2393 -0.9624
vn 0.0943 -0.2610 -0.9607
vn -0.0269 -0.8788 -0.4765
vn 0.0255 0.0000 -0.9997
vn -0.1305 0.9914 0.0000
vn 0.1459 0.0000 -0.9893
vn 0.1610 -0.9870 0.0000
vn -0.2114 0.9774 0.0000
vn 0.2387 -0.9711 0.0000
vn 0.2426 -0.9509 -0.1921
vn 0.2437 -0.9515 0.1878
vn 0.0322 -0.0000 0.9995
vn -0.0237 -0.8788 0.4765
vn 0.1001 -0.2588 0.9607
vn 0.1345 0.2412 0.9611
vn 0.2263 0.9471 0.2276
vn 0.2262 0.9387 -0.2600
vn 0.2023 0.9793 -0.0004
vn 0.2283 0.6873 0.6896
vn 0.2023 -0.0002 0.9793
vn 0.2281 -0.6685 0.7079
vn 0.2023 -0.9793 -0.0023
vn 0.2283 -0.7056 -0.6708
vn 0.2023 -0.0001 -0.9793
vn 0.2283 0.6909 -0.6860
usemtl initialShadingGroup
s off
f 21/1/1 22/2/1 23/3/1 24/4/1
f 25/5/2 26/6/2 27/7/2 28/8/2
f 29/9/3 30/10/3 31/11/3 32/12/3
f 1/13/4 4/14/4 37/15/4 38/16/4
f 5/17/5 8/18/5 39/19/5 40/20/5
f 9/21/6 12/22/6 41/23/6 42/24/6
f 39/19/7 8/18/7 9/21/7 42/24/7
f 22/2/8 26/6/8 25/5/8 23/3/8
f 18/25/9 21/1/9 24/4/9 19/26/9
f 41/23/10 12/22/10 33/27/10 36/28/10
f 27/7/11 29/9/11 32/12/11 28/8/11
f 37/15/12 4/14/12 5/17/12 40/20/12
f 57/29/13 56/30/13 64/31/13 65/32/13
f 58/33/14 55/34/14 63/35/14 66/36/14
f 56/30/15 59/37/15 67/38/15 64/31/15
f 60/39/16 58/33/16 66/36/16 68/40/16
f 70/41/13 71/42/13 72/43/13 73/44/13
f 76/45/14 74/46/14 13/47/14 16/48/14
f 77/49/16 76/45/16 16/48/16 52/50/16
f 71/42/15 79/51/15 80/52/15 72/43/15
f 81/53/13 82/54/13 71/42/13 70/41/13
f 87/55/14 88/56/14 74/46/14 76/45/14
f 89/57/16 87/55/16 76/45/16 77/49/16
f 82/54/15 91/58/15 79/51/15 71/42/15
f 92/59/13 93/60/13 82/54/13 81/53/13
f 97/61/14 94/62/14 88/56/14 87/55/14
f 98/63/16 97/61/16 87/55/16 89/57/16
f 93/60/15 100/64/15 91/58/15 82/54/15
f 65/32/13 64/31/13 93/60/13 92/59/13
f 66/36/14 63/35/14 94/62/14 97/61/14
f 68/40/16 66/36/16 97/61/16 98/63/16
f 64/31/15 67/38/15 100/64/15 93/60/15
f 81/53/17 70/41/17 105/65/17 106/66/17
f 74/46/18 88/56/18 83/67/18 86/68/18
f 65/32/17 92/59/17 107/69/17 108/70/17
f 94/62/18 63/35/18 101/71/18 104/72/18
s 1
f 1/13/19 2/73/20 3/74/21 4/14/19
f 5/17/22 6/75/23 7/76/24 8/77/22
f 9/78/25 10/79/26 11/80/27 12/81/25
f 13/47/28 14/82/29 15/83/30 16/48/28
f 17/84/31 18/25/32 19/26/33 20/85/33
f 33/27/34 34/86/35 35/87/36 36/28/36
f 36/88/37 35/89/38 43/90/39 44/91/40
f 41/92/41 45/93/42 46/94/43 42/95/44
f 37/96/45 47/97/46 48/98/47 38/99/48
f 40/100/49 39/101/50 49/102/51 50/103/52
f 8/77/53 7/76/54 10/79/55 9/78/53
f 49/102/51 39/101/50 42/104/44 46/105/43
f 30/10/56 17/84/57 20/85/33 31/11/33
f 16/48/58 15/83/59 51/106/60 52/50/58
f 35/87/36 34/86/61 1/13/62 38/16/36
f 48/107/47 43/90/39 35/89/38 38/108/48
f 12/81/63 11/80/64 53/109/65 33/110/63
f 44/111/40 45/93/42 41/92/41 36/112/37
f 4/14/66 3/74/67 6/75/68 5/17/66
f 50/113/52 47/97/46 37/96/45 40/114/49
f 33/110/69 53/109/70 54/115/71 55/34/69
f 18/116/32 17/117/31 56/30/72 57/29/72
f 34/118/35 33/110/34 55/34/73 58/33/73
f 17/117/57 30/119/56 59/37/74 56/30/74
f 2/120/75 1/121/76 60/39/76 61/122/77
f 1/121/62 34/118/61 58/33/78 60/39/78
f 55/34/79 54/115/80 62/123/81 63/35/79
f 61/122/82 60/39/83 68/40/83 69/124/84
f 74/46/79 75/125/85 14/82/86 13/47/79
f 78/126/87 77/49/83 52/50/83 51/106/88
f 83/67/89 84/127/90 85/128/91 86/68/89
f 90/129/87 89/57/83 77/49/83 78/126/88
f 94/62/79 95/130/92 96/131/93 88/56/79
f 99/132/87 98/63/83 89/57/83 90/129/84
f 101/71/89 102/133/94 103/134/95 104/72/89
f 69/124/96 68/40/83 98/63/83 99/132/84
f 88/56/97 96/131/98 84/127/99 83/67/97
f 75/125/100 74/46/101 86/68/101 85/128/102
f 63/35/103 62/123/98 102/133/104 101/71/103
f 95/130/105 94/62/106 104/72/106 103/134/107
f 10/79/26 22/135/108 21/136/108 11/80/27
f 53/109/65 11/80/64 21/136/109 18/116/109
f 54/115/71 53/109/70 18/116/110 57/29/110
f 62/123/81 54/115/80 57/29/111 65/32/111
f 102/133/104 62/123/98 65/32/112 108/70/112
f 103/134/95 102/133/94 108/70/113 107/69/113
f 92/59/114 95/130/105 103/134/107 107/69/114
f 96/131/93 95/130/92 92/59/111 81/53/111
f 84/127/99 96/131/98 81/53/115 106/66/115
f 85/128/91 84/127/90 106/66/113 105/65/113
f 70/41/116 75/125/100 85/128/102 105/65/116
f 14/82/86 75/125/85 70/41/111 73/44/111
f 15/83/30 14/82/29 73/44/117 72/43/117
f 51/106/60 15/83/59 72/43/118 80/52/118
f 79/51/119 78/126/87 51/106/88 80/52/119
f 91/58/119 90/129/87 78/126/88 79/51/119
f 100/64/119 99/132/87 90/129/84 91/58/119
f 67/38/119 69/124/96 99/132/84 100/64/119
f 59/37/119 61/122/82 69/124/84 67/38/119
f 30/119/120 2/120/75 61/122/77 59/37/120
f 3/74/21 2/73/20 30/10/121 29/9/121
f 6/75/68 3/74/67 29/9/122 27/7/122
f 7/76/24 6/75/23 27/7/123 26/137/123
f 10/79/55 7/76/54 26/137/124 22/135/124
f 44/91/40 43/90/39 20/138/125 19/139/126
f 19/140/126 24/141/127 45/93/42 44/111/40
f 46/94/43 45/93/42 24/141/127 23/142/128
f 25/143/129 49/102/51 46/105/43 23/144/128
f 50/103/52 49/102/51 25/143/129 28/145/130
f 28/146/130 32/147/131 47/97/46 50/113/52
f 48/98/47 47/97/46 32/147/131 31/148/132
f 20/138/125 43/90/39 48/107/47 31/149/132
