# Blender v2.79 (sub 0) OBJ File: ''
# www.blender.org
mtllib ruinsFoundation.mtl
o Untitled_foundationRuinOne200
v -228.668747 124.996330 -191.295090
v -228.668777 123.120705 -93.764450
v -179.147110 123.120697 -93.764442
v -179.147079 124.996330 -191.295059
v -228.668747 85.718307 -193.170670
v -179.147079 85.718300 -193.170670
v -228.668732 87.593903 -255.065125
v -179.147079 87.593903 -255.065109
v -228.668732 25.775873 -255.065140
v -179.147079 25.775885 -255.065140
v -228.668732 25.775902 -315.083984
v -179.147049 25.775898 -315.083984
v -228.668732 -2.291988 -313.208374
v -179.147064 -2.291993 -313.208374
v -228.668793 -2.292048 -93.764496
v -179.147125 -2.292053 -93.764481
v 227.457504 -2.408364 -2.577428
v -127.828186 -2.041760 -2.577384
v -127.828171 -2.041744 -52.099060
v 227.457550 -2.408348 -52.099083
v 221.999649 36.186588 -2.577415
v 221.999649 36.186604 -52.099068
v 164.707504 41.479767 -2.577414
v 164.707535 41.479778 -52.099091
v 164.641418 92.129143 -2.577397
v 164.641434 92.129150 -52.099072
v 125.947273 92.129143 -2.577418
v 125.947296 92.129166 -52.099083
v 126.362648 55.727242 -2.577429
v 126.362663 55.727253 -52.099094
v 44.269123 55.796108 -2.577323
v 44.269146 55.796120 -52.099117
v 44.058769 90.647156 -2.577312
v 44.058792 90.647179 -52.099106
v -9.806686 93.902092 -2.577332
v -9.806675 93.902107 -52.098999
v -15.244664 121.748245 -2.577323
v -15.244653 121.748268 -52.045509
v -127.552757 121.286575 -2.577344
v -127.552742 121.286598 -52.099022
v -270.687042 -3.226878 -95.042793
v -270.687042 -3.226898 48.581532
v -270.687042 234.053696 48.581608
v -270.687012 234.053757 -95.042732
v -127.062721 -3.226889 -95.042786
v -127.062729 -3.226924 48.581577
v -127.062706 234.053680 48.581650
v -127.062691 234.053726 -95.042732
v -151.614120 234.315430 -25.436405
v -178.424622 234.315460 -85.303909
v -145.656555 234.315460 -99.978470
v -118.846062 234.315430 -40.111027
v -151.614120 259.407318 -25.436417
v -118.846062 259.407318 -40.111015
v -145.656540 259.407349 -99.978462
v -178.424622 259.407318 -85.303894
v -176.284988 234.315414 48.581032
v -154.934570 234.315430 -13.443755
v -120.985710 234.315430 -1.757720
v -142.336121 234.315414 60.267025
v -176.284988 259.407318 48.581020
v -142.336105 259.407318 60.267014
v -120.985703 259.407318 -1.757735
v -154.934570 259.407318 -13.443769
v -285.434174 234.315430 13.862589
v -264.083740 234.315445 -48.162178
v -230.134872 234.315430 -36.476166
v -251.485275 234.315430 25.548601
v -285.434174 259.407318 13.862576
v -251.485275 259.407318 25.548590
v -230.134872 259.407318 -36.476158
v -264.083740 259.407318 -48.162170
vt 0.999501 0.000500
vt 0.999500 0.999501
vt 0.000499 0.999500
vt 0.000500 0.000500
vt 0.000499 0.000500
vt 0.999500 0.000500
vt 0.999501 0.999500
vt 0.000500 0.999501
vt 0.000499 0.000499
vt 0.999500 0.000499
vt 0.999500 0.999501
vt 0.000499 0.999501
vt 0.999500 0.000499
vt 0.000500 0.999501
vt 0.000499 0.000499
vt 0.999500 0.000499
vt 0.999500 0.999501
vt 0.000499 0.999501
vt 0.000500 0.000499
vt 0.999500 0.999501
vt 0.999501 0.000500
vt 0.999500 0.999501
vt 0.000499 0.999500
vt 0.000500 0.000500
vt 0.000499 0.000500
vt 0.999500 0.000500
vt 0.999501 0.999500
vt 0.000500 0.999501
vt 0.000499 0.000499
vt 0.999500 0.000499
vt 0.999500 0.999501
vt 0.000499 0.999501
vt 0.999500 0.000499
vt 0.000500 0.999501
vt 0.000499 0.000499
vt 0.999500 0.000499
vt 0.999500 0.999501
vt 0.000499 0.999501
vt 0.000500 0.000499
vt 0.999500 0.999501
vt 0.999501 0.000500
vt 0.999500 0.999501
vt 0.000499 0.999500
vt 0.000500 0.000500
vt 0.000499 0.000500
vt 0.999500 0.000500
vt 0.999501 0.999500
vt 0.000500 0.999501
vt 0.000499 0.000499
vt 0.999500 0.000499
vt 0.999500 0.999501
vt 0.000499 0.999501
vt 0.999500 0.000499
vt 0.000500 0.999501
vt 0.000499 0.000499
vt 0.999500 0.000499
vt 0.999500 0.999501
vt 0.000499 0.999501
vt 0.000500 0.000499
vt 0.999500 0.999501
vt 0.451797 0.582579
vt 0.093714 0.582579
vt 0.093714 0.468294
vt 0.451797 0.468294
vt 0.421331 0.582579
vt 0.277122 0.582579
vt 0.277122 0.468294
vt 0.421331 0.468294
vt 0.685928 0.582579
vt 0.458683 0.582579
vt 0.458683 0.468294
vt 0.685928 0.468294
vt 0.641409 0.582579
vt 0.414445 0.582579
vt 0.414445 0.468294
vt 0.641409 0.468294
vt 0.906286 0.582579
vt 0.685928 0.582579
vt 0.685928 0.468294
vt 0.906286 0.468294
vt 0.744460 0.582579
vt 0.641409 0.582579
vt 0.641409 0.468294
vt 0.744460 0.468294
vt 0.906286 0.582579
vt 0.100600 0.582579
vt 0.100600 0.468294
vt 0.906286 0.468294
vt 0.715991 0.582579
vt 0.255540 0.582579
vt 0.255540 0.468294
vt 0.715991 0.468294
vt 1.152214 0.583357
vt -0.152214 0.583357
vt -0.152214 0.469071
vt 1.152214 0.469071
vt 0.583357 0.586219
vt 0.583357 0.727920
vt 0.469071 0.727920
vt 0.469071 0.586219
vt 0.078172 0.583357
vt -0.132175 0.583357
vt -0.132175 0.469071
vt 0.078172 0.469071
vt 0.583357 0.380827
vt 0.583357 0.566785
vt 0.469071 0.566785
vt 0.469071 0.380827
vt 0.220480 0.583357
vt 0.078415 0.583357
vt 0.078415 0.469071
vt 0.220480 0.469071
vt 0.416643 0.514476
vt 0.416643 0.380827
vt 0.530929 0.380827
vt 0.530929 0.514476
vt 0.520360 0.583357
vt 0.218955 0.583357
vt 0.218955 0.469071
vt 0.520360 0.469071
vt 0.583357 0.386268
vt 0.583357 0.514223
vt 0.469071 0.514223
vt 0.469071 0.386268
vt 0.718899 0.583357
vt 0.521133 0.583357
vt 0.521133 0.469071
vt 0.718899 0.469071
vt 0.583357 0.272080
vt 0.583357 0.374317
vt 0.469071 0.374317
vt 0.469195 0.272080
vt 1.151202 0.583357
vt 0.738864 0.583357
vt 0.738864 0.469195
vt 1.151202 0.469071
vt 0.416643 0.726574
vt 0.416643 0.273775
vt 0.530929 0.273775
vt 0.530929 0.726574
vt 0.362878 0.151563
vt 0.694333 0.151563
vt 0.694333 1.022736
vt 0.362878 1.022736
vt 0.458683 0.578669
vt 0.451797 0.722878
vt 0.093714 0.715991
vt 0.899400 0.255540
vt 0.906286 0.358591
vt 0.685928 0.358591
vt 0.093714 0.255540
vt 0.685928 0.585555
vt 0.281101 0.374317
vt 0.478867 0.386268
vt 0.479640 0.514223
vt 0.781045 0.514476
vt 0.779520 0.380827
vt 0.921585 0.380827
vt 0.921828 0.566785
vt 1.132175 0.586219
vt 1.152214 0.727920
vt -0.152214 0.726574
vt -0.151202 0.273775
vt 0.261136 0.272080
vt 0.763658 0.305667
vt 0.763658 0.637122
vt 0.236343 0.637122
vt 0.236343 0.305667
vt 0.541317 0.578669
vt 0.314072 0.585555
vt 0.314072 0.358591
vt 0.093714 0.358591
vt 0.100600 0.255540
vt 0.906286 0.255540
vt 0.906286 0.715991
vt 0.548204 0.722878
vt 0.718899 0.374317
vt 0.738864 0.272080
vt 1.151202 0.273775
vt 1.152214 0.726574
vt -0.152214 0.727920
vt -0.132175 0.586219
vt 0.078172 0.566785
vt 0.078415 0.380827
vt 0.220480 0.380827
vt 0.218955 0.514476
vt 0.520360 0.514223
vt 0.521133 0.386268
vt 0.236343 0.305667
vt 0.763658 0.305667
vt 0.763658 0.637122
vt 0.236343 0.637122
vt 0.236343 0.151563
vt 0.763658 0.151563
vt 0.763658 1.022736
vt 0.236343 1.022736
vt 0.305667 0.151563
vt 0.637122 0.151563
vt 0.637122 1.022736
vt 0.305667 1.022736
vt 0.236343 0.151563
vt 0.763658 0.151563
vt 0.763658 1.022736
vt 0.236343 1.022736
vn -0.0000 -1.0000 -0.0000
vn -0.0000 1.0000 0.0000
vn 0.4087 0.0000 0.9127
vn 0.9127 -0.0000 -0.4087
vn -0.4087 0.0000 -0.9127
vn -0.9127 -0.0000 0.4087
vn -0.3255 0.0000 0.9455
vn 0.9455 -0.0000 0.3255
vn 0.3255 -0.0000 -0.9455
vn -0.9455 0.0000 -0.3255
vn 0.0000 0.9998 0.0192
vn 0.0000 0.0477 -0.9989
vn 0.0000 0.9995 0.0303
vn 0.0000 0.0000 -1.0000
vn 0.0000 -0.0667 -0.9978
vn 0.0000 -0.0000 1.0000
vn -0.0010 -1.0000 -0.0000
vn 0.9901 0.1400 0.0000
vn 0.0920 0.9958 0.0000
vn 1.0000 0.0013 0.0000
vn -0.9999 -0.0114 -0.0000
vn 0.0008 1.0000 0.0000
vn 1.0000 0.0060 0.0000
vn 0.0603 0.9982 0.0000
vn 0.9815 0.1917 0.0000
vn -0.0041 1.0000 0.0000
vn -1.0000 0.0022 -0.0000
vn -1.0000 0.0000 -0.0000
vn 1.0000 -0.0000 0.0000
vn 0.0004 0.0013 -1.0000
vn 0.0003 0.0012 -1.0000
vn 0.0005 0.0020 -1.0000
usemtl LoneBrick1
s 1
f 49/1/1 50/2/1 51/3/1
f 51/3/1 52/4/1 49/1/1
f 53/5/2 54/6/2 55/7/2
f 55/7/2 56/8/2 53/5/2
f 49/9/3 52/10/3 54/11/3
f 54/11/3 53/12/3 49/9/3
f 52/4/4 51/13/4 55/7/4
f 55/7/4 54/14/4 52/4/4
f 51/15/5 50/16/5 56/17/5
f 56/17/5 55/18/5 51/15/5
f 50/19/6 49/1/6 53/20/6
f 53/20/6 56/8/6 50/19/6
f 57/21/1 58/22/1 59/23/1
f 59/23/1 60/24/1 57/21/1
f 61/25/2 62/26/2 63/27/2
f 63/27/2 64/28/2 61/25/2
f 57/29/7 60/30/7 62/31/7
f 62/31/7 61/32/7 57/29/7
f 60/24/8 59/33/8 63/27/8
f 63/27/8 62/34/8 60/24/8
f 59/35/9 58/36/9 64/37/9
f 64/37/9 63/38/9 59/35/9
f 58/39/10 57/21/10 61/40/10
f 61/40/10 64/28/10 58/39/10
f 65/41/1 66/42/1 67/43/1
f 67/43/1 68/44/1 65/41/1
f 69/45/2 70/46/2 71/47/2
f 71/47/2 72/48/2 69/45/2
f 65/49/7 68/50/7 70/51/7
f 70/51/7 69/52/7 65/49/7
f 68/44/8 67/53/8 71/47/8
f 71/47/8 70/54/8 68/44/8
f 67/55/9 66/56/9 72/57/9
f 72/57/9 71/58/9 67/55/9
f 66/59/10 65/41/10 69/60/10
f 69/60/10 72/48/10 66/59/10
usemtl BrickOldRound1
f 1/61/11 2/62/11 3/63/11
f 3/63/11 4/64/11 1/61/11
f 5/65/12 1/66/12 4/67/12
f 4/67/12 6/68/12 5/65/12
f 7/69/13 5/70/13 6/71/13
f 6/71/13 8/72/13 7/69/13
f 9/73/14 7/74/14 8/75/14
f 8/75/14 10/76/14 9/73/14
f 11/77/2 9/78/2 10/79/2
f 10/79/2 12/80/2 11/77/2
f 13/81/15 11/82/15 12/83/15
f 12/83/15 14/84/15 13/81/15
f 15/85/1 13/86/1 14/87/1
f 14/87/1 16/88/1 15/85/1
f 2/89/16 15/90/16 16/91/16
f 16/91/16 3/92/16 2/89/16
f 17/93/17 18/94/17 19/95/17
f 19/95/17 20/96/17 17/93/17
f 21/97/18 17/98/18 20/99/18
f 20/99/18 22/100/18 21/97/18
f 23/101/19 21/102/19 22/103/19
f 22/103/19 24/104/19 23/101/19
f 25/105/20 23/106/20 24/107/20
f 24/107/20 26/108/20 25/105/20
f 27/109/2 25/110/2 26/111/2
f 26/111/2 28/112/2 27/109/2
f 29/113/21 27/114/21 28/115/21
f 28/115/21 30/116/21 29/113/21
f 31/117/22 29/118/22 30/119/22
f 30/119/22 32/120/22 31/117/22
f 33/121/23 31/122/23 32/123/23
f 32/123/23 34/124/23 33/121/23
f 35/125/24 33/126/24 34/127/24
f 34/127/24 36/128/24 35/125/24
f 37/129/25 35/130/25 36/131/25
f 36/131/25 38/132/25 37/129/25
f 39/133/26 37/134/26 38/135/26
f 38/135/26 40/136/26 39/133/26
f 18/137/27 39/138/27 40/139/27
f 40/139/27 19/140/27 18/137/27
f 41/141/28 42/142/28 43/143/28
f 43/143/28 44/144/28 41/141/28
f 6/145/29 4/146/29 3/147/29
f 14/148/29 12/149/29 10/150/29
f 16/151/29 14/148/29 10/150/29
f 3/147/29 16/151/29 10/150/29
f 6/145/29 3/147/29 10/150/29
f 6/145/29 10/150/29 8/152/29
f 36/153/30 34/154/14 32/155/14
f 30/156/14 28/157/14 26/158/14
f 30/156/14 26/158/14 24/159/14
f 22/160/14 20/161/14 19/162/14
f 24/159/14 22/160/14 19/162/14
f 30/156/14 24/159/14 19/162/14
f 32/155/14 30/156/14 19/162/14
f 32/155/14 19/162/14 40/163/31
f 36/153/30 32/155/14 40/163/31
f 36/153/30 40/163/31 38/164/32
f 42/165/1 41/166/1 45/167/1
f 45/167/1 46/168/1 42/165/1
f 5/169/28 7/170/28 9/171/28
f 9/171/28 11/172/28 13/173/28
f 9/171/28 13/173/28 15/174/28
f 9/171/28 15/174/28 2/175/28
f 5/169/28 9/171/28 2/175/28
f 5/169/28 2/175/28 1/176/28
f 35/177/16 37/178/16 39/179/16
f 18/180/16 17/181/16 21/182/16
f 18/180/16 21/182/16 23/183/16
f 25/184/16 27/185/16 29/186/16
f 23/183/16 25/184/16 29/186/16
f 18/180/16 23/183/16 29/186/16
f 18/180/16 29/186/16 31/187/16
f 39/179/16 18/180/16 31/187/16
f 35/177/16 39/179/16 31/187/16
f 35/177/16 31/187/16 33/188/16
f 43/189/2 47/190/2 48/191/2
f 48/191/2 44/192/2 43/189/2
f 42/193/16 46/194/16 47/195/16
f 47/195/16 43/196/16 42/193/16
f 46/197/29 45/198/29 48/199/29
f 48/199/29 47/200/29 46/197/29
f 45/201/14 41/202/14 44/203/14
f 44/203/14 48/204/14 45/201/14
