# Blender v2.78 (sub 0) OBJ File: 'FishSpawn.blend'
# www.blender.org
mtllib FishSpawn.mtl
o Circle.001
v 0.000000 0.000000 -5.000000
v -0.975452 0.000000 -4.903926
v -1.913417 0.000000 -4.619398
v -2.777851 0.000000 -4.157348
v -3.535534 0.000000 -3.535534
v -4.157348 0.000000 -2.777851
v -4.619398 0.000000 -1.913417
v -4.903926 0.000000 -0.975452
v -5.000000 0.000000 -0.000000
v -4.903926 0.000000 0.975451
v -4.619398 0.000000 1.913416
v -4.157348 0.000000 2.777851
v -3.535534 0.000000 3.535534
v -2.777851 0.000000 4.157348
v -1.913416 0.000000 4.619398
v -0.975450 0.000000 4.903926
v 0.000002 0.000000 5.000000
v 0.975454 0.000000 4.903926
v 1.913419 0.000000 4.619397
v 2.777853 0.000000 4.157347
v 3.535536 0.000000 3.535532
v 4.157350 0.000000 2.777848
v 4.619399 0.000000 1.913413
v 4.903927 0.000000 0.975447
v 5.000000 0.000000 -0.000005
v 4.903925 0.000000 -0.975457
v 4.619395 0.000000 -1.913422
v 4.157345 0.000000 -2.777856
v 3.535529 0.000000 -3.535538
v 2.777846 0.000000 -4.157352
v 1.913410 0.000000 -4.619401
v 0.975444 0.000000 -4.903928
vn 0.0000 1.0000 0.0000
usemtl None
s off
f 2//1 32//1 1//1
f 2//1 31//1 32//1
f 3//1 31//1 2//1
f 16//1 19//1 14//1
f 31//1 29//1 30//1
f 4//1 29//1 31//1
f 5//1 29//1 4//1
f 28//1 29//1 6//1
f 4//1 31//1 3//1
f 6//1 27//1 28//1
f 7//1 27//1 6//1
f 7//1 26//1 27//1
f 8//1 26//1 7//1
f 8//1 25//1 26//1
f 9//1 25//1 8//1
f 9//1 24//1 25//1
f 10//1 24//1 9//1
f 10//1 23//1 24//1
f 11//1 23//1 10//1
f 11//1 22//1 23//1
f 12//1 22//1 11//1
f 12//1 21//1 22//1
f 13//1 21//1 12//1
f 13//1 20//1 21//1
f 14//1 20//1 13//1
f 14//1 19//1 20//1
f 18//1 19//1 16//1
f 15//1 16//1 14//1
f 16//1 17//1 18//1
f 6//1 29//1 5//1
o Circle
v 0.000000 0.000000 -5.000000
v -0.975452 0.000000 -4.903926
v -1.913417 0.000000 -4.619398
v -2.777851 0.000000 -4.157348
v -3.535534 0.000000 -3.535534
v -4.157348 0.000000 -2.777851
v -4.619398 0.000000 -1.913417
v -4.903926 0.000000 -0.975452
v -5.000000 0.000000 -0.000000
v -4.903926 0.000000 0.975451
v -4.619398 0.000000 1.913416
v -4.157348 0.000000 2.777851
v -3.535534 0.000000 3.535534
v -2.777851 0.000000 4.157348
v -1.913416 0.000000 4.619398
v -0.975450 0.000000 4.903926
v 0.000002 0.000000 5.000000
v 0.975454 0.000000 4.903926
v 1.913419 0.000000 4.619397
v 2.777853 0.000000 4.157347
v 3.535536 0.000000 3.535532
v 4.157350 0.000000 2.777848
v 4.619399 0.000000 1.913413
v 4.903927 0.000000 0.975447
v 5.000000 0.000000 -0.000005
v 4.903925 0.000000 -0.975457
v 4.619395 0.000000 -1.913422
v 4.157345 0.000000 -2.777856
v 3.535529 0.000000 -3.535538
v 2.777846 0.000000 -4.157352
v 1.913410 0.000000 -4.619401
v 0.975444 0.000000 -4.903928
vn 0.0000 -1.0000 0.0000
usemtl None
s off
f 34//2 33//2 64//2
f 34//2 64//2 63//2
f 35//2 34//2 63//2
f 48//2 46//2 51//2
f 63//2 62//2 61//2
f 36//2 63//2 61//2
f 37//2 36//2 61//2
f 60//2 38//2 61//2
f 36//2 35//2 63//2
f 38//2 60//2 59//2
f 39//2 38//2 59//2
f 39//2 59//2 58//2
f 40//2 39//2 58//2
f 40//2 58//2 57//2
f 41//2 40//2 57//2
f 41//2 57//2 56//2
f 42//2 41//2 56//2
f 42//2 56//2 55//2
f 43//2 42//2 55//2
f 43//2 55//2 54//2
f 44//2 43//2 54//2
f 44//2 54//2 53//2
f 45//2 44//2 53//2
f 45//2 53//2 52//2
f 46//2 45//2 52//2
f 46//2 52//2 51//2
f 50//2 48//2 51//2
f 47//2 46//2 48//2
f 48//2 50//2 49//2
f 38//2 37//2 61//2
