# Blender v2.79 (sub 0) OBJ File: ''
# www.blender.org
mtllib Fish2.mtl
o Fish2_Fish
v -0.704730 -22.636400 -24.054979
v 0.666090 -14.796597 -22.037432
v 2.537620 -16.304396 -4.912693
v 2.761735 -6.475940 1.654054
v 3.001015 -10.120350 -0.126397
v 5.920095 -1.614774 -4.275425
v 3.621735 -2.304620 -2.976265
v 5.431270 -9.510728 -8.941162
v 5.763410 -1.295128 -10.403034
v 1.090795 26.204573 -22.917355
v 2.040390 22.584633 -0.661326
v 0.760045 19.795818 -23.677671
v -1.913055 -14.449590 -33.938599
v -0.687255 -9.438289 -34.764709
v -1.530950 -18.395550 -36.473446
v -2.557120 -22.045347 -44.189148
v -4.027830 -19.788357 -48.124756
v -3.070335 -18.672144 -36.593929
v -2.284695 -3.938069 -38.927250
v 0.415425 -16.516710 1.225792
v 1.409815 -22.408426 -0.281019
v 0.428305 -18.898535 -4.275233
v 0.436225 -23.912432 -7.834539
v -0.101430 -16.692690 -4.559078
v -2.549990 -11.988630 -31.732031
v -0.614075 -22.487305 -0.215979
v -3.145020 -2.369365 -2.990816
v -5.594665 -1.557539 -4.869475
v -2.997190 -6.378280 1.385434
v -4.872395 -9.530693 -9.258522
v -2.875865 -10.058624 0.065338
v -5.158390 -1.316298 -10.740860
v 0.713025 26.672750 -13.762175
v -0.428995 22.640266 -7.952991
v -1.324635 21.271820 3.684863
v -1.173285 19.503384 -23.870567
v -3.285640 23.027542 -48.607395
v -2.263790 22.255672 -50.285069
v -2.550225 21.033962 -47.955784
v -3.360675 -22.904104 -38.368595
v -1.901685 -14.936501 4.742403
v -1.808085 13.044667 -38.295109
v -1.717745 18.015917 -40.077816
v -1.349010 4.861667 -39.564320
v 1.861700 -14.706646 4.559523
v -3.451910 3.927006 -39.559475
v 1.868815 -2.194394 27.051266
v 1.665100 9.577311 20.575401
v 1.651845 -0.493629 27.123730
v -3.945765 -1.732979 25.639000
v -3.344380 -2.403100 27.483244
v -3.231630 -9.988488 16.465448
v 1.614995 -10.345823 17.369238
v -3.661920 0.362811 26.623476
v -2.801070 14.567062 14.748918
v -3.285485 9.858633 9.119112
v -3.368680 -2.494956 5.923975
v 3.254070 -2.373021 6.478019
v 2.488055 14.255198 13.454782
v 2.493550 18.763964 -24.014353
v -7.474935 -4.556457 -50.768093
v -6.503410 7.574358 -49.579338
v -5.310840 -8.602337 -46.050194
v -9.485465 0.977228 -50.016537
vn 0.9842 -0.1360 -0.1137
vn 0.9863 -0.0953 -0.1346
vn 0.9904 -0.0769 -0.1152
vn 0.9683 -0.1212 0.2185
vn 0.9845 -0.1509 0.0896
vn 0.9149 -0.1271 0.3831
vn -0.9358 -0.0442 -0.3498
vn 0.1044 -0.7795 -0.6176
vn 0.5719 0.7748 0.2695
vn 0.1144 0.5225 -0.8449
vn 0.0632 0.8308 0.5530
vn 0.9951 -0.0472 -0.0874
vn 0.9799 0.1841 -0.0768
vn 0.8826 0.3892 -0.2637
vn 0.1511 0.3262 -0.9331
vn 0.9764 -0.1168 -0.1818
vn 0.7843 0.4474 -0.4297
vn 0.4607 -0.7535 -0.4690
vn -0.9481 0.3143 0.0483
vn -0.6942 0.6069 -0.3870
vn 0.7121 -0.2803 -0.6437
vn -0.3197 -0.4155 -0.8516
vn 0.0971 0.5116 -0.8537
vn 0.9587 0.2106 -0.1909
vn -0.0027 0.9177 -0.3973
vn 0.9832 0.1066 -0.1480
vn 0.3617 -0.7705 0.5249
vn 0.0037 -0.4350 -0.9004
vn -0.9778 -0.1728 0.1188
vn -0.6598 -0.7204 0.2138
vn -0.9974 -0.0700 -0.0170
vn -0.6908 -0.6124 0.3844
vn -0.1558 0.8165 0.5560
vn -0.5849 0.7802 0.2220
vn -0.2689 0.7057 0.6555
vn -0.0776 -0.7818 -0.6187
vn 0.9182 -0.0898 -0.3859
vn -0.9716 -0.2150 -0.0985
vn -0.0827 0.5196 -0.8504
vn -0.0315 0.9982 0.0501
vn -0.9857 0.1663 -0.0260
vn -0.9538 0.3004 -0.0106
vn -0.9893 0.1449 0.0194
vn -0.8094 0.5572 -0.1853
vn -0.3257 0.3550 -0.8763
vn -0.0965 -0.9407 -0.3252
vn -0.5399 -0.8417 0.0056
vn -0.7364 -0.6179 0.2757
vn -0.9818 0.1090 -0.1557
vn -0.0316 0.6262 -0.7790
vn 0.4391 0.5103 -0.7395
vn 0.1674 0.7168 0.6769
vn 0.7225 0.3458 -0.5987
vn 0.0676 0.9543 0.2910
vn 0.1364 0.9826 -0.1258
vn -0.2077 -0.9779 0.0235
vn 0.1765 -0.9430 0.2820
vn 0.8582 -0.2357 -0.4559
vn 0.8226 0.2672 -0.5019
vn 0.0778 -0.7851 0.6145
vn -0.7845 0.6134 -0.0911
vn -0.9809 -0.1147 0.1572
vn -0.9476 -0.1351 0.2894
vn 0.3445 -0.3360 0.8766
vn 0.1645 0.5375 0.8270
vn 0.5055 0.1925 0.8411
vn -0.8772 -0.0126 0.4799
vn -0.4541 0.0954 0.8858
vn -0.7257 -0.6264 0.2846
vn 0.5745 -0.7144 0.3994
vn -0.6413 0.0829 0.7628
vn -0.9926 0.1077 0.0569
vn -0.5849 0.6851 0.4343
vn -0.9932 0.1161 -0.0116
vn -0.9965 0.0816 0.0175
vn -0.9958 -0.0907 -0.0150
vn -0.9995 0.0144 -0.0298
vn -0.9865 0.0471 -0.1566
vn -0.9967 0.0576 -0.0564
vn 0.6072 0.5340 0.5884
vn 0.9959 0.0325 0.0847
vn 0.9980 0.0447 0.0455
vn 0.7669 0.5376 0.3506
vn 0.9916 -0.1145 0.0602
vn -0.2548 0.6293 0.7342
vn 0.9613 -0.2635 0.0799
vn 0.5975 0.5262 -0.6050
vn 0.6499 0.0224 -0.7597
vn -0.0417 0.8744 -0.4834
vn 0.9084 -0.0985 -0.4063
vn 0.0731 -0.9969 0.0280
vn -0.7032 -0.6661 -0.2487
vn 0.7872 -0.6089 0.0975
vn 0.0113 0.8672 0.4979
vn -0.9929 0.1163 0.0258
vn -0.9243 -0.0147 0.3815
vn 0.0042 -0.6481 -0.7615
vn -0.9634 -0.1602 -0.2148
vn -0.0242 -0.9946 0.1014
vn -0.4873 -0.8704 0.0700
vn 0.2760 -0.9549 0.1093
vn 0.9990 0.0089 -0.0446
vn 0.9992 0.0019 -0.0408
vn 0.4880 0.8628 -0.1317
vn 0.9534 0.2671 0.1400
vn 0.8581 -0.1273 -0.4975
vn 0.9922 -0.1121 0.0544
vn -0.9948 0.0900 -0.0476
vn -0.9854 -0.1665 0.0353
vn -0.9984 -0.0573 -0.0015
vn -0.9058 0.0982 -0.4122
vn -0.9952 -0.0932 0.0283
vn -0.9456 -0.2522 -0.2056
usemtl Fins
s 1
f 1//1 2//2 3//3
f 4//4 5//5 6//6
f 7//7 8//8 5//5
f 6//9 8//8 9//10
f 6//9 9//10 7//11
f 10//12 11//13 12//14
f 2//2 13//15 14//16
f 15//17 13//15 2//2
f 1//1 16//18 15//17
f 17//19 18//20 15//17
f 14//21 13//15 19//22
f 20//23 21//24 22//25
f 22//26 21//27 23//28
f 18//20 13//15 15//17
f 1//29 24//30 25//31
f 26//32 23//28 21//27
f 27//33 28//34 29//35
f 30//36 27//37 31//38
f 28//34 30//36 31//38
f 32//39 28//34 27//33
f 33//40 34//41 35//42
f 33//40 36//43 34//41
f 37//44 38//45 39//46
f 18//20 17//19 40//47
f 25//31 19//22 13//15
f 20//23 26//32 41//48
f 22//49 23//28 26//32
f 10//12 12//14 42//50 43//51
f 7//11 4//52 6//9
f 6//9 5//5 8//8
f 7//7 9//10 8//8
f 44//53 42//50 12//14
f 35//42 11//54 33//40
f 11//54 10//55 33//40
f 38//45 10//55 43//56 39//46
f 42//50 36//43 33//40 43//51
f 1//1 15//17 2//2
f 1//29 3//57 24//30
f 16//18 17//58 15//17
f 40//47 16//18 1//29
f 20//23 45//59 21//24
f 21//27 45//60 41//48
f 44//53 46//61 42//50
f 29//62 28//63 31//38
f 28//34 32//39 30//36
f 30//36 32//39 27//37
f 36//43 42//50 46//61
f 43//56 33//40 37//44 39//46
f 33//40 10//55 38//45 37//44
f 40//47 25//31 13//15 18//20
f 25//31 40//47 1//29
f 40//47 17//58 16//18
f 20//23 22//25 26//32
f 26//32 21//27 41//48
usemtl Front
f 47//64 48//65 49//66
f 47//64 50//67 51//68
f 51//68 52//69 53//70
f 50//67 54//71 55//72
f 54//71 49//66 48//65
f 55//73 56//74 50//75
f 50//67 57//76 52//69
f 50//77 56//78 57//79
f 48//80 47//81 58//82 59//83
f 53//70 47//64 51//68
f 59//83 55//73 48//80
f 53//70 58//84 47//64
f 50//67 47//64 49//66
f 55//73 54//85 48//80
f 52//69 51//68 50//67
f 54//71 50//67 49//66
usemtl Body
f 45//86 58//84 53//70
f 60//87 44//53 12//14
f 44//53 61//88 62//89
f 44//90 63//91 61//92
f 7//7 5//5 3//93
f 45//60 53//70 41//48
f 41//48 52//69 57//76
f 35//94 56//74 55//73
f 36//43 27//95 34//41
f 46//96 19//97 25//98
f 44//53 62//89 46//61
f 57//79 56//78 35//42
f 20//99 41//100 24//101
f 2//2 60//102 7//103 3//3
f 11//13 60//104 12//14
f 60//102 11//105 7//103
f 14//16 44//53 60//87 2//2
f 11//105 35//94 55//73 59//83
f 11//105 58//82 7//103
f 44//90 14//106 19//97
f 19//97 63//91 44//90
f 58//82 11//105 59//83
f 4//4 7//107 58//84 45//86 5//5
f 3//93 45//86 20//99 24//101
f 35//42 34//41 27//108 57//79
f 5//5 45//86 3//93
f 25//31 24//30 27//109
f 36//43 46//61 27//95
f 27//109 46//110 25//31
f 19//97 46//96 64//111 63//91
f 62//89 61//88 64//111
f 64//111 61//92 63//91
f 46//96 62//89 64//111
f 41//48 57//76 27//112 29//62 31//38
f 24//113 41//48 31//38
f 24//113 31//38 27//37
f 41//48 53//70 52//69
