# Blender v2.79 (sub 0) OBJ File: ''
# www.blender.org
mtllib Manta ray.mtl
o MantaRay
v -0.186252 3.518380 0.225762
v -9.831248 3.431269 4.965599
v -0.031844 3.757082 13.174392
v -51.163700 -20.029491 -13.357273
v -43.299225 -10.176466 -6.371754
v -40.839596 -11.799933 -10.986853
v -11.802314 4.755642 34.796387
v -8.610264 2.347124 45.353901
v -8.161427 4.778020 32.302330
v -42.793186 -12.942765 1.271502
v -44.440899 -10.315432 0.433738
v -2.281299 -2.807466 -35.815384
v -3.914727 -2.790382 -39.605629
v -2.179696 -1.491867 -35.580269
v -8.904769 0.786422 -14.032290
v -20.998375 -3.359924 -15.187004
v -25.886477 -4.736052 -11.487996
v -15.572507 -4.760577 -18.898777
v -12.046753 -2.207972 -20.759035
v -10.829129 -5.496233 -26.428249
v -20.336479 0.740003 18.009241
v -14.281598 1.708759 18.811632
v -36.287781 -6.376529 8.185539
v -33.784359 -5.700119 -5.566938
v -50.406254 -20.885910 -13.201960
v -8.394265 0.161610 35.117413
v -8.621184 -1.020153 45.799316
v -12.657984 3.348403 19.647423
v -8.492576 -1.868780 35.273022
v -0.008445 -4.302732 -35.712418
v -2.804970 -4.224089 -35.957573
v -0.014934 -0.147269 -35.162273
v -0.853785 1.145755 -71.408012
v -1.199160 1.306291 -89.766533
v 0.000041 3.624096 -112.315765
v 0.000029 -0.390533 -79.280838
v 0.380616 1.973167 -78.732185
v -3.076010 5.516235 29.630281
v 0.733169 0.486314 -20.012772
v -3.518461 4.640502 30.198357
v -0.816543 0.260271 -25.386166
v -0.000029 4.855008 -23.770428
v -0.006065 5.396531 -26.584455
v -7.425775 -2.139744 -36.982964
v -7.436202 -4.441796 -37.228386
v 47.952724 -23.165922 -14.007211
v 39.013683 -13.898386 -11.540693
v 41.606987 -12.578386 -6.899623
v 8.606461 2.350374 45.328316
v 11.767059 4.757499 34.762783
v 8.126005 4.844462 32.275116
v 42.843601 -13.231575 -0.178379
v 37.927822 -12.179762 5.080155
v 3.914484 -2.791328 -39.605858
v 2.280876 -2.805305 -35.813614
v 2.181603 -1.504631 -35.590572
v 11.984255 -2.151634 -20.855553
v 15.255258 -4.244974 -19.057375
v 10.833353 -5.518985 -26.401072
v 11.750931 3.426079 19.417519
v 13.048561 2.057444 18.765335
v 10.087200 1.909201 -7.911630
v 22.866495 -2.743236 -12.396095
v 24.441723 -4.254078 -12.940040
v 47.046436 -23.831915 -13.877522
v 4.918036 4.866474 30.511362
v 11.688953 1.248038 45.911652
v 11.839959 -1.437490 45.598114
v 2.804997 -4.229280 -35.956303
v 1.199221 1.306296 -89.766586
v 25.366671 -2.194168 -6.105729
v 20.290289 0.908201 17.983995
v 0.730809 0.280392 -25.567610
v 1.048401 -2.835524 -45.198765
v 31.701412 -8.891213 -11.145123
v 31.656351 -7.023872 -11.101359
v 36.104515 -5.593889 8.153083
v 33.897324 -5.449760 -5.391955
v 7.436228 -4.447070 -37.227127
v 7.428086 -2.157868 -36.979206
v -26.463350 -6.785085 -11.436133
v -34.449409 -8.622290 10.683473
v -11.695348 1.240215 45.920494
v -12.809869 -1.778370 34.516357
v -11.856483 -1.114986 45.755451
v -20.933729 -3.219150 19.368340
v -0.779142 0.441066 -19.880705
v -1.041965 -2.832706 -45.286774
v 24.027637 -5.685373 -12.926695
v 34.640862 -7.934156 10.383960
v 12.961232 -1.618753 34.257198
v 8.236310 0.084881 35.051815
v 8.596552 -1.020209 45.803589
v 8.494790 -1.886533 35.273655
v 21.017580 -2.977078 19.280525
v -33.454887 -11.471384 3.291989
v -40.746639 -13.466094 -4.769507
v -14.291509 -5.108775 20.818663
v -5.917417 -5.715875 -20.740896
v -7.349644 2.320911 27.014107
v 7.196479 2.276682 26.543093
v -4.120813 -2.520428 32.743813
v -7.213452 -0.699696 26.680763
v -6.272528 0.753923 18.645479
v -6.199099 -1.705567 18.784115
v 6.223048 0.722178 18.642523
v 20.804750 -6.936614 9.722108
v 9.288385 -7.759078 10.976377
v 22.362347 -7.292141 -0.738174
v -0.062515 -8.276818 -10.180450
v 12.107285 -6.573035 -10.299875
v -0.073631 -7.831954 -2.615856
v 33.541878 -11.047130 -2.275263
v 14.460621 -4.949181 20.823555
v 8.376086 -5.871447 -18.609247
v 0.027088 -8.740128 21.444189
v -0.248121 -9.096907 14.180986
v 4.922756 -2.483334 33.141525
v 7.225769 -0.669648 26.835396
v 6.189580 -1.727726 18.798866
v -20.546177 -7.566254 9.782725
v -21.330971 -8.043157 -0.988172
v -8.467140 -6.785716 -1.215290
v -11.106017 -6.716628 -10.128107
v 15.067153 0.012672 35.190281
v 15.650562 -1.087326 37.027576
v -15.067181 0.012672 35.190258
v -15.650575 -1.087326 37.027554
vn -0.0531 0.9935 -0.1011
vn -0.1883 0.9811 -0.0441
vn -0.0677 0.9969 0.0413
vn -0.8483 -0.1292 -0.5135
vn -0.6534 0.7076 -0.2690
vn -0.4425 0.7121 -0.5451
vn 0.0690 0.9769 0.2020
vn 0.5384 0.5984 0.5933
vn 0.1213 0.9751 0.1858
vn -0.7576 -0.3009 0.5792
vn -0.7616 -0.2933 0.5779
vn 0.6652 -0.1360 -0.7342
vn 0.4633 -0.8370 -0.2912
vn -0.6857 0.1790 -0.7056
vn -0.2357 0.9311 -0.2783
vn -0.5466 0.6163 -0.5669
vn -0.4470 0.6576 -0.6065
vn -0.6300 -0.0100 -0.7765
vn -0.4648 0.7658 -0.4444
vn -0.1857 -0.9742 -0.1284
vn -0.7373 0.6665 -0.1101
vn -0.3126 0.9290 -0.1980
vn -0.0617 0.5397 -0.8396
vn -0.6055 0.4186 0.6769
vn -0.3025 0.9378 -0.1704
vn -0.3761 0.9032 -0.2069
vn -0.6189 -0.6320 -0.4665
vn 0.9971 -0.0240 0.0727
vn 0.5786 -0.5330 0.6174
vn -0.0891 0.9956 -0.0296
vn -0.2202 0.8552 -0.4692
vn -0.0668 0.9938 -0.0885
vn 0.9963 -0.0425 0.0747
vn 0.0890 0.0668 -0.9938
vn 0.0368 -0.7498 -0.6606
vn 0.0299 -0.8008 -0.5982
vn -0.0017 0.9834 -0.1816
vn -0.3755 0.9259 0.0421
vn -0.0556 0.5608 -0.8261
vn -0.7959 0.6051 0.0203
vn -0.8676 0.4969 0.0201
vn -0.7939 0.6077 0.0202
vn -0.5100 -0.8566 -0.0786
vn -0.3405 -0.9335 -0.1121
vn -0.3302 -0.9370 -0.1139
vn -0.3221 0.9454 0.0499
vn -0.3339 0.9413 0.0501
vn -0.0149 0.8631 0.5049
vn -0.0696 0.9866 -0.1474
vn -0.0628 0.9866 -0.1507
vn 0.2042 -0.3166 0.9263
vn -0.1329 0.9712 -0.1979
vn -0.3073 0.9490 -0.0708
vn -0.9860 0.1634 0.0336
vn -0.0700 0.9795 0.1887
vn 0.0032 0.8139 -0.5810
vn -0.4115 0.9109 -0.0301
vn -0.4159 0.9085 -0.0399
vn -0.7260 0.3282 -0.6044
vn -0.8320 0.0625 -0.5512
vn -0.9557 0.1083 -0.2737
vn -0.2286 0.8283 -0.5115
vn 0.4752 -0.8313 -0.2883
vn 0.8237 -0.2733 -0.4968
vn 0.5299 0.6546 -0.5392
vn 0.7430 0.6179 -0.2571
vn -0.5312 0.5958 0.6024
vn -0.0567 0.9770 0.2056
vn -0.1068 0.9759 0.1904
vn 0.5331 -0.5814 0.6146
vn 0.5320 -0.5824 0.6146
vn -0.4631 -0.8370 -0.2916
vn -0.6651 -0.1352 -0.7344
vn 0.6837 0.1737 -0.7088
vn 0.6242 0.5642 -0.5404
vn 0.5824 -0.3129 -0.7503
vn 0.6629 -0.6950 -0.2786
vn 0.8235 0.5589 -0.0972
vn 0.1262 0.9896 -0.0697
vn 0.2100 0.8539 -0.4761
vn 0.1489 0.7646 -0.6271
vn 0.2236 0.9389 -0.2618
vn 0.1779 0.9742 -0.1389
vn 0.2658 0.9393 -0.2171
vn 0.4512 0.6025 -0.6584
vn 0.4929 0.6349 -0.5950
vn 0.4735 -0.7380 -0.4808
vn -0.0766 0.3557 0.9314
vn -0.0007 0.9985 0.0549
vn 0.0826 0.9928 -0.0862
vn 0.5951 0.3975 0.6984
vn 0.5612 -0.5769 0.5935
vn 0.9983 0.0534 0.0238
vn -0.0879 0.0672 -0.9939
vn -0.0309 -0.8008 -0.5981
vn -0.0151 -0.9405 -0.3396
vn 0.0564 0.5642 -0.8237
vn 0.7901 0.6126 0.0216
vn 0.7882 0.6150 0.0213
vn 0.8242 0.5657 0.0259
vn 0.5083 -0.8576 -0.0785
vn 0.3302 -0.9370 -0.1139
vn 0.3404 -0.9336 -0.1121
vn 0.2699 0.9565 -0.1106
vn 0.2630 0.9642 -0.0346
vn 0.2689 0.9595 -0.0835
vn 0.5152 0.7823 -0.3500
vn 0.5415 -0.8378 -0.0695
vn 0.5472 -0.8336 -0.0750
vn 0.5470 -0.8343 -0.0691
vn -0.5758 -0.3826 -0.7225
vn -0.3128 -0.3883 -0.8668
vn 0.4185 0.5238 -0.7419
vn 0.3675 0.9111 -0.1866
vn 0.3074 0.9498 -0.0587
vn 0.3836 0.9097 -0.1587
vn 0.8322 0.0626 -0.5510
vn 0.7276 0.3278 -0.6026
vn 0.9557 0.1116 -0.2722
vn 0.2299 0.8302 -0.5078
vn -0.4753 -0.8311 -0.2889
vn -0.4111 0.8834 -0.2249
vn -0.2598 0.9650 0.0365
vn -0.5829 0.0415 -0.8115
vn -0.1881 -0.1034 -0.9767
vn -0.3581 0.8776 -0.3186
vn 0.0023 0.9978 -0.0657
vn -0.2412 0.9684 -0.0629
vn -0.2363 0.9703 -0.0521
vn -0.7132 -0.0308 0.7003
vn -0.3673 -0.7234 0.5846
vn -0.4536 -0.5576 0.6952
vn -0.5701 0.4335 0.6979
vn -0.9563 0.1556 0.2475
vn -0.7004 -0.6375 0.3212
vn -0.5888 -0.5114 0.6259
vn -0.9555 0.1146 -0.2717
vn 0.9949 0.0102 0.1005
vn -0.8845 0.1796 0.4307
vn -0.8512 -0.2542 0.4592
vn -0.3487 0.9372 -0.0108
vn -0.0438 0.9922 0.1164
vn 0.0282 0.8013 0.5976
vn -0.6042 0.7966 -0.0221
vn -0.5437 -0.8364 -0.0699
vn -0.5477 -0.8333 -0.0751
vn -0.9846 0.1746 0.0010
vn 0.0462 0.6558 0.7535
vn -0.5488 -0.8330 -0.0696
vn -0.1484 0.0066 -0.9889
vn -0.4317 -0.4064 0.8053
vn -0.3598 -0.5422 0.7593
vn 0.1110 0.9923 -0.0554
vn 0.6823 0.7258 -0.0874
vn 0.6418 0.7174 -0.2708
vn 0.6407 0.7170 -0.2745
vn 0.3873 -0.0891 -0.9176
vn 0.2299 -0.0167 -0.9731
vn 0.3893 -0.1628 -0.9066
vn 0.4112 0.8476 -0.3354
vn 0.2800 0.9540 -0.1073
vn 0.2256 0.9721 -0.0647
vn 0.2256 0.9727 -0.0551
vn 0.6790 -0.2948 0.6724
vn 0.7657 -0.0855 0.6375
vn 0.4994 -0.3898 0.7737
vn 0.9436 0.1904 0.2708
vn 0.9129 -0.2828 0.2945
vn -0.9949 0.0230 0.0982
vn -0.9960 -0.0501 0.0740
vn -0.5630 -0.5081 0.6518
vn 0.9556 0.1182 -0.2701
vn -0.9901 -0.1219 0.0702
vn -0.9916 -0.1278 0.0201
vn 0.0804 0.9930 -0.0865
vn 0.1362 0.9662 -0.2189
vn 0.6097 0.7920 -0.0296
vn 0.8567 -0.2350 0.4592
vn 0.8818 0.1981 0.4279
vn 0.9871 0.1602 -0.0064
vn 0.5955 0.3415 0.7271
vn 0.3611 -0.5084 0.7818
vn 0.1929 -0.9677 0.1624
vn 0.2656 -0.9641 -0.0017
vn 0.5644 -0.8219 0.0766
vn 0.4587 -0.8583 0.2298
vn 0.6171 -0.7868 -0.0146
vn 0.6988 -0.6883 -0.1949
vn -0.3158 -0.9135 0.2563
vn -0.0285 -0.9995 -0.0155
vn -0.0012 -0.9968 -0.0799
vn -0.0278 -0.9905 0.1347
vn -0.0627 -0.9682 0.2422
vn 0.0989 -0.8572 0.5054
vn -0.0835 -0.8527 0.5156
vn -0.0424 0.0617 0.9972
vn 0.1128 0.9660 0.2326
vn -0.0314 -0.5269 0.8493
vn 0.5502 -0.4958 0.6719
vn 0.5259 0.6460 0.5532
vn -0.0009 0.0628 0.9980
vn 0.1141 -0.9892 0.0918
vn 0.1628 -0.9749 0.1516
vn 0.0761 -0.9961 0.0452
vn 0.0702 -0.9922 -0.1034
vn 0.1374 -0.9873 -0.0796
vn 0.1390 -0.9886 0.0583
vn -0.4627 -0.8864 -0.0120
vn -0.7078 -0.7049 -0.0471
vn -0.4349 -0.8941 0.1073
vn 0.3339 -0.9055 0.2618
vn -0.0039 -0.9989 -0.0464
vn 0.1148 -0.9611 0.2511
vn 0.0330 -0.9989 0.0328
vn 0.0477 -0.9918 -0.1186
vn 0.0323 -0.9946 -0.0987
vn 0.0505 -0.9930 -0.1065
vn -0.0642 -0.9857 0.1557
vn -0.0094 -0.9917 0.1279
vn 0.1529 -0.9873 0.0427
vn 0.0998 -0.9930 -0.0634
vn -0.0443 -0.9986 -0.0279
vn 0.0741 -0.9962 -0.0457
vn 0.2220 -0.9689 -0.1094
vn 0.1172 -0.0403 0.9923
vn -0.9914 0.0146 0.1302
vn -0.3017 -0.9534 0.0063
vn -0.3191 -0.9455 -0.0654
vn -0.5319 0.6426 0.5514
vn 0.0006 -0.9975 -0.0701
vn 0.1218 -0.9884 -0.0906
vn 0.0200 -0.9968 -0.0773
vn -0.1739 -0.9621 0.2100
vn -0.1324 -0.9912 -0.0040
vn -0.1324 -0.9912 -0.0069
vn -0.0987 -0.9889 -0.1113
vn -0.0234 -0.9782 -0.2063
vn -0.1753 -0.9204 0.3493
vn 0.0017 -0.9256 0.3785
vn 0.3119 -0.9166 -0.2503
vn 0.2400 -0.9662 -0.0941
vn 0.1185 -0.9821 -0.1463
vn -0.1284 -0.9777 -0.1659
vn -0.0777 -0.9779 -0.1941
vn -0.0151 -0.9893 -0.1448
vn 0.0501 -0.9948 -0.0883
vn 0.0239 -0.9731 -0.2292
vn 0.0422 -0.9963 -0.0746
vn 0.9903 0.0216 0.1370
vn 0.9902 0.0317 0.1361
vn 0.1717 -0.8831 0.4367
vn -0.6995 -0.6802 0.2190
vn -0.6958 -0.6839 0.2192
vn 0.6675 -0.7105 0.2229
vn 0.3770 -0.9192 -0.1135
vn -0.0000 -0.9175 0.3978
vn 0.7669 0.6416 0.0129
vn 0.2793 -0.9600 0.0222
vn 0.0889 -0.9838 -0.1554
vn 0.1847 -0.9664 0.1787
vn 0.0084 -0.9964 -0.0839
vn -0.0161 -0.9982 -0.0578
vn 0.1962 -0.9211 0.3363
vn 0.2555 -0.4745 0.8424
vn 0.0879 -0.9776 -0.1910
vn -0.9910 0.0337 0.1298
vn -0.7412 0.6713 0.0063
vn -0.0658 0.9651 0.2535
vn -0.3399 -0.9263 -0.1627
vn 0.0155 -0.8934 0.4489
vn -0.0892 -0.9836 -0.1565
usemtl Top
s 1
f 1//1 2//2 3//3
f 4//4 5//5 6//6
f 7//7 8//8 9//9
f 4//4 10//10 11//11
f 12//12 13//13 14//14
f 15//15 16//16 17//17
f 18//18 19//19 20//20
f 11//21 5//5 4//4
f 21//22 22//23 23//24
f 15//15 19//19 16//16
f 15//25 17//17 24//26 2//2
f 10//10 4//4 25//27
f 4//4 6//6 25//27
f 26//28 8//8 27//29
f 9//30 28//31 7//32
f 26//28 27//29 29//33
f 12//34 30//35 31//36
f 32//37 33//38 14//39
f 34//40 33//41 35//42
f 36//43 34//44 35//45
f 33//38 37//46 35//47
f 38//48 28//31 9//30
f 15//49 1//1 39//50
f 38//48 9//30 40//51
f 28//31 38//48 3//52
f 28//53 21//53 7//53
f 41//54 42//55 43//56
f 12//12 33//41 34//40
f 22//23 21//22 28//31
f 23//57 24//26 11//58
f 44//59 45//60 20//61
f 32//37 14//39 44//59
f 44//59 13//62 45//60
f 31//63 13//13 12//12
f 46//64 47//65 48//66
f 49//67 50//68 51//69
f 46//64 52//70 53//71
f 54//72 55//73 56//74
f 57//75 58//76 59//77
f 52//78 46//64 48//66
f 3//79 60//80 61//81
f 57//82 62//83 63//84
f 64//85 58//76 57//75 63//86
f 46//64 53//71 65//87
f 47//65 46//64 65//87
f 40//51 66//88 38//48
f 51//89 50//90 60//80
f 67//91 68//92 50//93
f 55//94 69//95 30//96
f 37//46 32//37 56//97
f 70//98 35//99 37//100
f 36//101 35//102 70//103
f 71//104 62//83 61//105
f 60//106 50//106 72//106
f 73//107 43//56 42//55
f 30//108 74//109 55//110
f 47//111 75//112 76//113
f 71//114 77//115 78//116
f 79//117 80//118 59//119
f 56//97 32//37 80//118
f 54//120 80//118 79//117
f 54//72 69//121 55//73
f 24//26 5//122 11//58
f 2//2 22//123 3//3
f 17//17 16//16 18//124 81//125
f 3//52 22//23 28//31
f 41//126 32//127 44//128 19//129
f 23//130 11//130 10//131 82//132
f 19//19 18//18 16//16
f 83//133 7//134 84//135 85//136
f 20//61 19//137 44//59
f 26//28 9//138 8//8
f 7//7 83//133 8//8
f 27//29 8//8 83//133 85//136
f 84//135 7//134 21//139 86//140
f 14//14 33//41 12//12
f 2//2 23//141 22//123
f 87//142 19//19 15//15
f 15//15 39//143 87//142
f 19//129 87//144 41//126
f 15//49 2//2 1//1
f 2//2 24//26 23//141
f 36//43 30//145 88//146 34//44
f 87//144 42//147 41//126
f 39//143 42//148 87//142
f 73//107 41//126 43//56
f 30//145 12//149 88//146
f 33//38 32//37 37//46
f 24//26 17//17 6//150 5//122
f 12//149 34//44 88//146
f 21//22 23//24 82//151 86//152
f 17//17 81//125 6//150
f 61//81 62//83 1//153 3//79
f 14//39 13//62 44//59
f 52//154 48//155 78//156 77//154
f 64//157 76//158 75//158 89//159
f 71//104 63//84 62//83
f 71//114 78//116 76//160 63//86
f 72//161 77//115 71//114 61//81
f 58//76 64//157 89//159
f 80//162 32//127 41//126 73//107 57//163
f 53//164 52//165 77//165 90//166
f 76//160 64//85 63//86
f 50//167 68//92 91//168
f 49//67 51//169 92//170 93//171
f 80//118 57//172 59//119
f 93//171 68//92 67//91 49//67
f 94//173 93//174 92//170
f 49//67 67//91 50//68
f 60//80 3//79 38//175 66//88
f 55//73 37//100 56//74
f 66//88 51//89 60//80
f 62//83 39//176 1//153
f 62//83 57//82 39//176
f 73//107 39//177 57//163
f 91//168 95//178 72//179 50//167
f 74//109 30//108 36//101 70//103
f 73//107 42//180 39//177
f 78//156 48//155 47//111 76//113
f 55//73 70//98 37//100
f 74//109 70//103 55//110
f 90//166 77//181 72//181 95//182
f 61//81 60//80 72//161
f 80//118 54//120 56//97
usemtl Bottom
f 96//183 10//131 97//184
f 97//185 10//186 25//187
f 97//185 25//187 6//188
f 86//140 98//189 84//135
f 99//190 20//20 59//191
f 29//192 84//135 98//193
f 20//20 99//190 18//18
f 40//51 100//194 101//195
f 102//196 103//197 29//198
f 10//131 96//183 82//132
f 104//199 105//200 106//201
f 59//191 20//20 30//96
f 107//202 108//203 109//204
f 110//205 111//206 112//207
f 113//208 65//209 53//210
f 113//208 47//111 65//209
f 95//178 91//168 114//211
f 30//96 69//95 59//191
f 99//190 59//191 115//212
f 94//213 114//213 91//213
f 68//92 94//214 91//168
f 89//215 111//216 115//217
f 116//218 117//219 108//220
f 108//221 112//222 111//223
f 59//77 58//76 115//224
f 66//88 101//195 51//89
f 40//51 101//195 66//88
f 103//197 102//196 118//225
f 92//170 119//226 94//173
f 53//210 107//227 109//228 113//208
f 106//201 105//200 120//229
f 121//230 122//231 123//232 117//230
f 98//233 121//233 117//219 116//218
f 110//234 112//222 123//235 124//236
f 124//236 18//237 110//234
f 29//198 98//238 116//239 102//196
f 81//125 97//240 6//150
f 96//241 81//242 122//231
f 85//136 84//135 29//192 27//29
f 110//205 18//243 99//244
f 30//35 20//245 31//36
f 122//231 81//242 124//246 123//232
f 124//236 81//247 18//237
f 117//248 123//235 112//222
f 103//249 100//250 9//138 26//28
f 40//51 9//251 100//194
f 104//199 106//252 101//253 100//254
f 26//28 29//33 103//249
f 97//184 81//255 96//183
f 121//256 98//256 86//152 82//151 96//256
f 104//199 100//254 103//257 105//200
f 122//231 121//258 96//241
f 45//259 13//13 31//63 20//259
f 108//203 107//202 114//260 116//260
f 109//261 108//262 111//216
f 116//239 114//263 94//264 118//225
f 110//205 115//265 111//206
f 113//208 75//112 47//111
f 119//226 92//170 51//169 101//266
f 110//205 99//244 115//265
f 68//92 93//171 94//214
f 58//76 89//159 115//224
f 108//221 117//248 112//222
f 111//216 89//215 109//261
f 118//225 102//196 116//239
f 103//257 119//267 120//229 105//200
f 118//225 94//264 119//268 103//268
f 75//269 113//208 109//228 89//269
f 90//166 95//182 114//270 107//270 53//164
f 119//267 101//253 106//252 120//229
f 79//271 59//271 69//121 54//72
