# Blender v2.79 (sub 0) OBJ File: ''
# www.blender.org
mtllib Rock.mtl
o Group15792
v 0.105390 0.800440 0.662809
v 0.178389 0.901223 0.554974
v -0.220401 0.816173 0.598290
v 0.265168 1.076479 0.121253
v -0.157021 1.020869 0.298350
v 0.043386 1.002803 0.392631
v 0.420140 0.979895 0.218974
v 0.240395 1.000538 0.361478
v 0.553679 0.791619 0.422005
v 0.513910 0.918316 0.189847
v -0.578271 0.044001 0.849534
v -0.636613 0.422437 0.705971
v -0.724681 0.109704 0.748285
v -0.059478 0.037394 0.956388
v -0.457679 -0.130976 0.808977
v -0.538870 -0.313729 0.753556
v 0.052786 -0.553930 0.809322
v 0.159167 -0.241408 0.951600
v 0.212264 0.110726 1.033896
v 0.651770 0.753254 -0.496717
v 0.762366 0.747733 -0.429101
v 0.599370 0.678267 -0.562327
v 0.829473 0.563203 -0.557082
v -0.066914 -0.383231 0.843721
v 0.083462 0.099535 1.008219
v -0.822535 -0.153706 0.668294
v -0.750888 -0.294566 0.709323
v 0.888476 -0.032652 0.769027
v 0.964304 0.378828 0.708084
v 0.664213 0.138532 0.984039
v 0.770710 -0.328024 0.641744
v 1.028982 -0.042050 0.608835
v 0.335723 -0.470515 0.832257
v 0.339735 -0.637397 0.653658
v 0.539658 -0.702304 0.417519
v -0.447818 -0.311528 -0.921410
v -0.590762 -0.582272 -0.804982
v -0.751337 -0.493265 -0.693710
v -0.313184 0.522488 0.761804
v -0.127129 0.123296 0.954347
v 0.842130 -0.138115 0.690399
v 1.007723 0.003358 0.472714
v 0.521121 0.561493 0.947538
v 0.496090 0.220027 1.041196
v 0.705721 -0.848086 0.094782
v 0.809560 -0.779007 -0.113142
v 0.781931 -0.690716 0.112848
v 0.713099 0.314728 0.955003
v 0.361199 0.727297 0.748605
v -0.410242 0.670205 0.629028
v -0.571285 0.592593 0.579632
v -0.476508 0.494757 0.723791
v -0.537896 0.012147 -0.606052
v -0.760547 0.252323 -0.076105
v -0.380302 0.583651 -0.411477
v 0.244870 0.531015 -0.611031
v 0.427839 0.811785 -0.421451
v 0.667479 -0.186369 0.888109
v 0.703161 0.386804 0.893680
v 0.021099 -0.950161 -0.014673
v 0.320925 -0.879853 0.214908
v -0.266022 -0.829123 0.192490
v 0.359629 0.638629 0.889922
v -0.387962 0.230946 0.843855
v -0.795917 -0.379024 0.607426
v 0.038657 0.595709 0.813436
v -0.060137 0.990970 0.484933
v -0.329838 0.479374 -0.581929
v -0.305107 -0.534052 0.718279
v -0.050524 -0.674522 0.515302
v -0.487395 0.739117 0.390927
v 0.404409 0.072113 1.003122
v -0.775003 -0.539714 0.483471
v -0.568453 -0.539699 0.684681
v 0.886237 0.683314 0.368596
v 0.942286 0.571790 0.591035
v -1.007229 -0.027030 0.254587
v -0.759819 0.437731 0.361427
v -0.837503 0.289081 0.207379
v 0.202123 -0.415306 -1.036383
v 0.180532 -0.798056 -0.800382
v -0.269655 -0.673257 -0.877829
v -0.671852 0.574291 0.342165
v -1.004963 -0.567057 0.088105
v -0.892419 -0.545604 0.374030
v -1.063544 -0.359832 0.273493
v -0.747925 0.374458 0.600234
v -0.649471 -0.201441 -0.631620
v -0.317888 -0.009052 -0.896224
v -0.695222 -0.741773 0.258496
v -0.993714 -0.118248 0.002566
v -1.036552 -0.105050 0.247712
v -0.754473 -0.662008 0.382222
v 0.599559 -0.810780 0.301546
v 0.989021 -0.264130 0.293971
v 0.859881 -0.508083 0.350746
v 0.910407 -0.549341 0.061150
v -1.091839 -0.322046 0.079128
v -1.082731 -0.363549 -0.039588
v -0.694745 -0.776671 0.061930
v 0.466986 -0.939938 -0.641227
v 0.769144 -0.870220 -0.256573
v 0.485208 -0.970819 -0.221087
v 0.027856 1.058701 0.037251
v 0.208247 0.994923 -0.201523
v 0.553699 -0.438486 0.813070
v 0.737584 -0.611574 0.406693
v 0.308994 -0.930425 -0.001248
v 0.200277 -1.062314 -0.394541
v -0.366316 -0.895530 -0.105472
v 0.112111 -1.023715 -0.200515
v 0.758824 0.791670 0.144949
v 0.525586 0.971742 0.066241
v 0.695726 0.809953 0.310469
v 0.875848 0.711924 0.210845
v 0.819723 0.731039 0.280527
v 0.538056 -0.396607 -1.025192
v 0.466269 -0.337768 -1.066462
v -0.938762 -0.493611 -0.403046
v 1.022795 0.135047 0.204872
v 0.984187 -0.299429 0.063279
v 0.970461 0.199282 -0.056289
v -0.139668 0.430175 -0.663778
v 0.175717 0.877202 -0.380006
v -0.960324 -0.612148 -0.125924
v 0.640442 0.545628 -0.655543
v -0.948390 -0.321965 0.494592
v 0.854560 0.334877 -0.615619
v 0.387409 0.174898 -0.940953
v 0.599585 -0.708601 -0.680381
v -0.702231 -0.716903 -0.364085
v -0.716689 -0.799108 -0.118125
v -0.069508 -1.013018 -0.526521
v -0.223627 -0.302373 -1.027240
v -0.226181 0.915527 0.043125
v 0.661406 -0.533699 -0.739605
v 0.479248 -0.735084 -0.811398
v 0.717709 0.825586 -0.235518
v 0.877483 -0.678828 -0.136918
v 0.636717 0.903699 -0.175358
v 0.522701 0.941233 -0.073092
v 0.959673 0.021011 -0.023848
v 0.933563 0.083926 -0.402674
v 0.791737 0.705347 -0.090626
v -0.374841 -0.826490 -0.612140
v 0.918145 -0.186399 -0.212813
v 0.800833 -0.017369 -0.686527
v 0.922840 0.632706 -0.368810
v 0.823319 -0.445394 -0.580688
v -0.604648 -0.829786 -0.231437
v 0.846412 -0.186290 -0.496431
v 0.906075 -0.169049 -0.392933
v 0.803303 -0.290369 -0.735274
v -0.754846 -0.601157 -0.538005
v 0.142269 0.269788 -0.827224
v 0.360626 -0.025521 -1.079963
v 0.114204 -0.099754 -1.072722
v 0.640361 -0.006468 -0.835644
v 0.928721 0.564296 -0.226359
v 0.988138 0.250514 -0.181788
v 0.938586 0.361121 -0.422515
v -0.304183 -0.909490 -0.500792
v -0.059923 0.090799 -0.948244
v -0.615793 0.433978 -0.103094
v 0.963334 0.214944 -0.507314
v 0.840620 0.654097 -0.013341
v 0.111148 -0.914112 -0.751180
v -0.203399 -0.878724 -0.688939
v -0.126584 -0.075826 -1.034414
v 0.283623 -1.014204 -0.607791
v 0.948113 0.393660 0.366248
v -0.061292 0.753309 -0.430544
v 0.344497 -0.151748 0.956503
v 0.929797 0.548049 -0.016905
v 0.932582 -0.155643 -0.011907
vt 0.595377 0.132761
vt 0.639490 0.076159
vt 0.434744 0.130735
vt 0.653878 0.047222
vt 0.459535 0.045841
vt 0.563985 0.046243
vt 0.755701 0.070311
vt 0.661453 0.046873
vt 0.817758 0.131971
vt 0.796510 0.097160
vt 0.120505 0.491368
vt 0.155580 0.315846
vt 0.080996 0.459993
vt 0.397451 0.512741
vt 0.210404 0.584812
vt 0.187015 0.674452
vt 0.528038 0.817570
vt 0.577977 0.686439
vt 0.601978 0.471032
vt 0.771033 0.236202
vt 0.823388 0.234503
vt 0.750895 0.271409
vt 0.828686 0.310664
vt 0.454728 0.740378
vt 0.496682 0.467016
vt 0.037752 0.581310
vt 0.080965 0.652362
vt 1.008161 0.543974
vt 1.047077 0.323411
vt 0.932800 0.449887
vt 0.950848 0.664044
vt 1.058086 0.529562
vt 0.704022 0.772945
vt 0.696242 0.851147
vt 0.772601 0.867769
vt 0.363367 0.623282
vt 0.305278 0.710141
vt 0.243089 0.676192
vt 0.347882 0.254200
vt 0.334829 0.454358
vt 0.977514 0.588740
vt 1.040966 0.519612
vt 0.846008 0.213033
vt 0.826527 0.407711
vt 0.857501 0.895918
vt 0.899857 0.852537
vt 0.904622 0.833806
vt 0.946915 0.346175
vt 0.753890 0.141031
vt 0.296673 0.206242
vt 0.216382 0.242753
vt 0.249751 0.274818
vt 0.318773 0.501572
vt 0.190117 0.413067
vt 0.391445 0.294938
vt 0.624145 0.312694
vt 0.694866 0.209237
vt 0.909332 0.608630
vt 0.932785 0.300294
vt 0.520107 0.935254
vt 0.675843 0.926442
vt 0.367698 0.885918
vt 0.747714 0.166763
vt 0.246595 0.399970
vt 0.069800 0.694495
vt 0.560741 0.212738
vt 0.513206 0.044588
vt 0.418262 0.342214
vt 0.348410 0.792451
vt 0.492043 0.855120
vt 0.283808 0.180732
vt 0.743033 0.502828
vt 0.088460 0.762132
vt 0.223924 0.791780
vt 0.990507 0.194304
vt 1.026888 0.242506
vt 0.024911 0.511663
vt 0.149045 0.325279
vt 0.131558 0.389545
vt 0.567530 0.647597
vt 0.583191 0.792962
vt 0.426542 0.733642
vt 0.198450 0.265120
vt 0.025413 0.743221
vt 0.045845 0.763642
vt -0.026131 0.664947
vt 0.117250 0.333028
vt 0.274228 0.582093
vt 0.421227 0.518335
vt 0.146396 0.842708
vt 0.065394 0.555873
vt -0.001974 0.570763
vt 0.111944 0.820751
vt 0.820993 0.896506
vt 1.005524 0.637792
vt 0.956886 0.747257
vt 0.959453 0.737846
vt 0.001156 0.635802
vt 0.029424 0.672097
vt 0.169153 0.845345
vt 0.704724 0.837528
vt 0.851754 0.867889
vt 0.736622 0.925164
vt 0.553608 0.069115
vt 0.624032 0.121065
vt 0.817719 0.749587
vt 0.894008 0.808003
vt 0.657021 0.934640
vt 0.600545 0.928495
vt 0.325143 0.882350
vt 0.561826 0.949192
vt 0.910511 0.150862
vt 0.782003 0.077337
vt 0.879772 0.135835
vt 0.965199 0.184734
vt 0.946809 0.170620
vt 0.698313 0.644177
vt 0.671955 0.627961
vt 0.122811 0.683911
vt 1.004852 0.454138
vt 0.969220 0.627796
vt 0.952861 0.439703
vt 0.487445 0.361125
vt 0.611781 0.184629
vt 0.089189 0.745935
vt 0.753130 0.318311
vt 0.011708 0.658768
vt 0.832759 0.384863
vt 0.678112 0.458926
vt 0.742677 0.771559
vt 0.213696 0.771412
vt 0.182837 0.823056
vt 0.489373 0.887229
vt 0.448677 0.615115
vt 0.445416 0.133406
vt 0.760365 0.708450
vt 0.686546 0.772046
vt 0.826384 0.185546
vt 0.922811 0.807392
vt 0.799307 0.139678
vt 0.766141 0.111532
vt 0.955769 0.511354
vt 0.887735 0.483351
vt 0.895004 0.208236
vt 0.361327 0.795244
vt 0.914372 0.592028
vt 0.812649 0.526276
vt 0.878099 0.272852
vt 0.833936 0.699852
vt 0.238650 0.828477
vt 0.847811 0.583136
vt 0.878840 0.583932
vt 0.805149 0.626939
vt 0.208417 0.721061
vt 0.600254 0.410644
vt 0.645432 0.528019
vt 0.555768 0.555971
vt 0.754526 0.516754
vt 0.914166 0.291380
vt 0.938116 0.409588
vt 0.888516 0.369072
vt 0.385654 0.843351
vt 0.516406 0.476658
vt 0.260523 0.343641
vt 0.867127 0.426036
vt 0.919824 0.223933
vt 0.563514 0.826420
vt 0.446283 0.814911
vt 0.480065 0.544987
vt 0.630674 0.877654
vt 1.009532 0.321019
vt 0.490272 0.249732
vt 0.693054 0.623802
vt 0.948218 0.272352
vt 0.948315 0.585426
vn -0.0992 0.7093 0.6979
vn 0.1039 0.8039 0.5856
vn -0.3397 0.6872 0.6421
vn 0.1789 0.9833 0.0344
vn -0.4097 0.9056 0.1095
vn 0.0733 0.9489 0.3071
vn 0.4605 0.8229 0.3329
vn 0.2389 0.8847 0.4003
vn 0.3702 0.8281 0.4210
vn 0.5140 0.7889 0.3368
vn -0.3414 -0.0099 0.9399
vn -0.5197 0.4565 0.7222
vn -0.6936 0.1574 0.7029
vn -0.2500 -0.2151 0.9441
vn -0.2141 -0.2445 0.9457
vn -0.2091 -0.2445 0.9468
vn -0.0867 -0.6632 0.7434
vn -0.3122 -0.2648 0.9124
vn -0.1083 0.0008 0.9941
vn 0.2738 0.6880 -0.6721
vn 0.4624 0.7680 -0.4430
vn 0.0722 0.6130 -0.7868
vn 0.6175 0.4182 -0.6662
vn -0.1961 -0.3022 0.9328
vn -0.2136 0.0187 0.9767
vn -0.7594 0.0060 0.6507
vn -0.5402 -0.2762 0.7949
vn 0.6735 -0.2829 0.6829
vn 0.8640 0.2204 0.4527
vn 0.4299 -0.1377 0.8923
vn 0.6679 -0.4975 0.5535
vn 0.9336 -0.1703 0.3152
vn 0.1516 -0.5639 0.8118
vn 0.2322 -0.7910 0.5660
vn 0.2662 -0.7605 0.5922
vn -0.5597 0.1240 -0.8194
vn -0.5281 -0.4666 -0.7095
vn -0.7776 -0.1192 -0.6173
vn -0.2509 0.4293 0.8676
vn -0.2418 0.0898 0.9661
vn -0.3221 -0.3069 0.8956
vn 0.9964 0.0705 -0.0470
vn 0.2218 0.5644 0.7952
vn 0.1057 0.0159 0.9943
vn 0.5538 -0.7843 0.2795
vn 0.8155 -0.5445 0.1960
vn 0.8004 -0.5388 0.2628
vn 0.5447 0.2151 0.8105
vn 0.2379 0.8382 0.4907
vn -0.4245 0.6582 0.6218
vn -0.5907 0.6703 0.4492
vn -0.3199 0.4714 0.8218
vn -0.7361 0.4111 -0.5378
vn -0.7932 0.4786 -0.3766
vn -0.6395 0.6255 -0.4470
vn -0.0897 0.6111 -0.7865
vn 0.0455 0.7591 -0.6494
vn 0.4600 -0.3776 0.8036
vn 0.5406 0.5390 0.6459
vn -0.0973 -0.9387 0.3308
vn 0.0555 -0.9246 0.3768
vn -0.1389 -0.9152 0.3782
vn -0.0488 0.6337 0.7721
vn -0.2584 0.3153 0.9131
vn -0.6350 -0.4374 0.6368
vn -0.2244 0.4759 0.8504
vn -0.1341 0.8483 0.5123
vn -0.5067 0.5536 -0.6609
vn -0.1628 -0.6644 0.7294
vn -0.0992 -0.8827 0.4593
vn -0.6220 0.7682 0.1519
vn 0.1232 -0.2771 0.9529
vn -0.5839 -0.5761 0.5719
vn -0.2533 -0.6274 0.7363
vn 0.7430 0.6497 0.1611
vn 0.7887 0.5433 0.2878
vn -0.9244 0.3643 0.1128
vn -0.8564 0.5124 0.0637
vn -0.8445 0.5084 -0.1683
vn -0.0168 -0.3419 -0.9396
vn 0.0511 -0.5277 -0.8479
vn -0.2224 -0.5596 -0.7984
vn -0.7577 0.6524 -0.0164
vn -0.7779 -0.6163 0.1227
vn -0.6245 -0.6336 0.4567
vn -0.8610 -0.2540 0.4406
vn -0.8132 0.4174 0.4055
vn -0.7356 0.3980 -0.5482
vn -0.5442 0.3936 -0.7409
vn -0.3872 -0.8707 0.3031
vn -0.8561 0.4016 -0.3253
vn -0.9463 0.2781 0.1648
vn -0.8996 -0.4357 -0.0292
vn 0.2865 -0.8039 0.5212
vn 0.9641 -0.2530 0.0808
vn 0.7713 -0.5353 0.3442
vn 0.9247 -0.3754 0.0632
vn -0.9886 -0.0886 0.1218
vn -0.9996 0.0141 -0.0244
vn -0.9733 0.0026 -0.2294
vn -0.4043 -0.8948 0.1893
vn 0.4348 -0.7591 -0.4845
vn 0.6884 -0.7134 -0.1311
vn 0.2525 -0.9612 0.1114
vn -0.2584 0.9332 -0.2498
vn -0.0496 0.9027 -0.4273
vn 0.3653 -0.5859 0.7234
vn 0.6030 -0.6381 0.4788
vn 0.1096 -0.9572 0.2679
vn 0.0652 -0.9978 0.0090
vn -0.2406 -0.9609 0.1374
vn -0.0477 -0.9703 0.2371
vn 0.5821 0.8127 -0.0247
vn 0.5041 0.8630 0.0334
vn 0.4078 0.8542 0.3225
vn 0.7615 0.6480 -0.0120
vn 0.5145 0.8509 0.1062
vn 0.5051 -0.2722 -0.8190
vn 0.2817 -0.1291 -0.9508
vn -0.8713 -0.1657 -0.4619
vn 0.9918 0.1200 -0.0429
vn 0.9728 -0.1566 -0.1708
vn 0.9972 -0.0612 -0.0423
vn -0.1210 0.6673 -0.7349
vn -0.1203 0.7513 -0.6489
vn -0.7519 -0.6435 -0.1431
vn 0.1921 0.5333 -0.8238
vn -0.8007 -0.1859 0.5696
vn 0.6695 0.1858 -0.7192
vn 0.1783 0.5229 -0.8335
vn 0.7207 -0.4643 -0.5149
vn -0.5481 -0.7737 -0.3179
vn -0.4799 -0.8768 -0.0289
vn -0.2502 -0.9415 -0.2259
vn -0.2859 -0.0802 -0.9549
vn -0.5647 0.7728 -0.2897
vn 0.7304 -0.4375 -0.5245
vn 0.4056 -0.5568 -0.7249
vn 0.6409 0.7638 -0.0767
vn 0.8975 -0.4204 0.1333
vn 0.4940 0.8691 -0.0242
vn 0.4187 0.9010 -0.1139
vn 0.8447 -0.1622 -0.5101
vn 0.9460 -0.2704 -0.1786
vn 0.7389 0.6733 0.0256
vn -0.4584 -0.7830 -0.4204
vn 0.9805 -0.1171 -0.1577
vn 0.7730 -0.0169 -0.6342
vn 0.8717 0.4536 -0.1854
vn 0.8801 -0.3013 -0.3669
vn 0.9373 -0.2570 -0.2355
vn -0.3987 -0.9030 -0.1600
vn 0.8447 0.2843 -0.4535
vn 0.9647 0.2188 -0.1465
vn 0.8589 -0.0979 -0.5026
vn -0.6066 -0.6954 -0.3854
vn -0.0908 0.6224 -0.7774
vn 0.2056 0.3045 -0.9301
vn -0.0790 0.1937 -0.9779
vn 0.9131 0.0732 -0.4012
vn 0.6212 0.1982 -0.7582
vn 0.9331 0.3555 0.0545
vn 0.9986 -0.0509 -0.0174
vn 0.9542 0.2182 -0.2049
vn -0.4197 -0.8824 -0.2124
vn -0.1668 0.5503 -0.8182
vn -0.7472 0.5999 -0.2858
vn 0.9317 -0.0355 -0.3616
vn 0.7965 0.5835 -0.1583
vn -0.0698 -0.6131 -0.7869
vn -0.3046 -0.7616 -0.5719
vn -0.2887 0.3016 -0.9087
vn 0.1629 -0.9085 -0.3847
vn 0.9835 0.1803 -0.0119
vn -0.2870 0.7239 -0.6273
vn 0.1328 -0.2996 0.9448
vn 0.9206 0.3898 -0.0237
vn 0.9213 -0.0176 -0.3885
vn 0.9978 -0.0014 -0.0670
usemtl phong1SG
s 1
f 1/1/1 2/2/2 3/3/3
f 4/4/4 5/5/5 6/6/6
f 7/7/7 8/8/8 9/9/9
f 10/10/10 7/7/7 9/9/9
f 11/11/11 12/12/12 13/13/13
f 14/14/14 15/15/15 16/16/16
f 17/17/17 18/18/18 19/19/19
f 20/20/20 21/21/21 22/22/22
f 23/23/23 22/22/22 21/21/21
f 14/14/14 24/24/24 25/25/25
f 16/16/16 24/24/24 14/14/14
f 11/11/11 26/26/26 27/27/27
f 28/28/28 29/29/29 30/30/30
f 31/31/31 32/32/32 28/28/28
f 33/33/33 34/34/34 35/35/35
f 36/36/36 37/37/37 38/38/38
f 39/39/39 40/40/40 25/25/25
f 41/41/41 31/31/31 28/28/28
f 29/29/29 32/32/32 42/42/42
f 43/43/43 19/19/19 44/44/44
f 45/45/45 46/46/46 47/47/47
f 30/30/30 48/48/48 44/44/44
f 1/1/1 49/49/49 2/2/2
f 11/11/11 13/13/13 26/26/26
f 40/40/40 14/14/14 25/25/25
f 50/50/50 51/51/51 52/52/52
f 52/52/52 51/51/51 12/12/12
f 53/53/53 54/54/54 55/55/55
f 56/56/56 57/57/57 22/22/22
f 58/58/58 28/28/28 30/30/30
f 43/43/43 48/48/48 59/59/59
f 60/60/60 61/61/61 62/62/62
f 63/63/63 25/25/25 43/43/43
f 52/52/52 64/64/64 40/40/40
f 26/26/26 65/65/65 27/27/27
f 58/58/58 31/31/31 41/41/41
f 66/66/66 1/1/1 3/3/3
f 39/39/39 50/50/50 52/52/52
f 3/3/3 2/2/2 67/67/67
f 68/68/68 53/53/53 55/55/55
f 17/17/17 69/69/69 70/70/70
f 3/3/3 39/39/39 66/66/66
f 48/48/48 30/30/30 29/29/29
f 6/6/6 67/67/67 2/2/2
f 51/51/51 50/50/50 71/71/71
f 49/49/49 9/9/9 8/8/8
f 72/72/72 30/30/30 44/44/44
f 65/65/65 73/73/73 74/74/74
f 64/64/64 11/11/11 40/40/40
f 75/75/75 9/9/9 76/76/76
f 44/44/44 19/19/19 72/72/72
f 43/43/43 59/59/59 76/76/76
f 77/77/77 78/78/78 79/79/79
f 71/71/71 3/3/3 5/5/5
f 80/80/80 81/81/81 82/82/82
f 71/71/71 83/83/83 51/51/51
f 84/84/84 85/85/85 86/86/86
f 51/51/51 87/87/87 12/12/12
f 34/34/34 33/33/33 17/17/17
f 88/88/88 89/89/89 36/36/36
f 90/90/90 73/73/73 85/85/85
f 70/70/70 61/61/61 34/34/34
f 91/91/91 92/92/92 77/77/77
f 39/39/39 52/52/52 40/40/40
f 50/50/50 39/39/39 3/3/3
f 74/74/74 93/93/93 90/90/90
f 35/35/35 61/61/61 94/94/94
f 70/70/70 62/62/62 61/61/61
f 95/95/95 96/96/96 97/97/97
f 86/86/98 98/98/99 99/99/100
f 99/99/100 84/84/84 86/86/98
f 24/24/24 69/69/69 17/17/17
f 85/85/85 100/100/101 90/90/90
f 101/101/102 102/102/103 103/103/104
f 104/104/105 4/4/4 105/105/106
f 69/69/69 90/90/90 62/62/62
f 106/106/107 107/107/108 31/31/31
f 12/12/12 11/11/11 64/64/64
f 108/108/109 109/109/110 103/103/104
f 60/60/60 110/110/111 111/111/112
f 111/111/112 108/108/109 60/60/60
f 112/112/113 113/113/114 10/10/10
f 79/79/79 83/83/83 54/54/54
f 112/112/113 10/10/10 114/114/115
f 115/115/116 116/116/117 75/75/75
f 87/87/87 83/83/83 78/78/78
f 54/54/54 91/91/91 79/79/79
f 117/117/118 80/80/80 118/118/119
f 88/88/88 119/119/120 91/91/91
f 16/16/16 27/27/27 74/74/74
f 120/120/121 121/121/122 122/122/123
f 123/123/124 68/68/68 56/56/56
f 124/124/125 56/56/56 68/68/68
f 99/99/100 119/119/120 125/125/126
f 56/56/56 22/22/22 126/126/127
f 49/49/49 43/43/43 9/9/9
f 96/96/96 95/95/95 32/32/32
f 85/85/85 127/127/128 86/86/86
f 50/50/50 3/3/3 71/71/71
f 99/99/100 125/125/126 84/84/84
f 23/23/23 128/128/129 129/129/130
f 35/35/35 107/107/108 106/106/107
f 101/101/102 130/130/131 102/102/103
f 131/131/132 132/132/133 125/125/126
f 26/26/26 77/77/77 92/92/92
f 9/9/9 75/75/75 114/114/115
f 133/133/134 111/111/112 110/110/111
f 36/36/36 134/134/135 37/37/37
f 65/65/65 127/127/128 73/73/73
f 134/134/135 82/82/82 37/37/37
f 105/105/106 135/135/136 104/104/105
f 107/107/108 35/35/35 94/94/94
f 94/94/94 61/61/61 108/108/109
f 136/136/137 130/130/131 137/137/138
f 138/138/139 21/21/21 20/20/20
f 97/97/97 96/96/96 139/139/140
f 104/104/105 5/5/5 4/4/4
f 135/135/136 71/71/71 5/5/5
f 20/20/20 57/57/57 140/140/141
f 110/110/111 60/60/60 62/62/62
f 78/78/78 83/83/83 79/79/79
f 4/4/4 113/113/114 141/141/142
f 122/122/123 142/142/143 143/143/144
f 138/138/139 140/140/141 144/144/145
f 145/145/146 37/37/37 82/82/82
f 80/80/80 137/137/138 81/81/81
f 87/87/87 78/78/78 77/77/77
f 99/99/100 98/98/99 91/91/91
f 143/143/144 146/146/147 147/147/148
f 119/119/120 99/99/100 91/91/91
f 81/81/81 137/137/138 101/101/102
f 23/23/23 21/21/21 148/148/149
f 141/141/142 113/113/114 112/112/113
f 149/149/150 139/139/151 102/102/103
f 88/88/88 36/36/36 38/38/38
f 116/116/117 115/115/116 112/112/113
f 144/144/145 141/141/142 112/112/113
f 124/124/125 135/135/136 105/105/106
f 142/142/143 122/122/123 121/121/122
f 150/150/152 110/110/111 132/132/133
f 133/133/134 109/109/110 111/111/112
f 151/151/153 152/152/154 153/153/155
f 37/37/37 145/145/146 154/154/156
f 155/155/157 129/129/130 156/156/158
f 130/130/131 136/136/137 149/149/150
f 149/149/150 102/102/103 130/130/131
f 156/156/158 80/80/80 157/157/159
f 80/80/80 134/134/135 157/157/159
f 53/53/53 68/68/68 89/89/89
f 147/147/160 153/153/155 117/117/118
f 158/158/161 117/117/118 118/118/119
f 80/80/80 117/117/118 137/137/138
f 159/159/162 160/160/163 161/161/164
f 131/131/132 145/145/146 150/150/152
f 153/153/155 149/149/150 136/136/137
f 116/116/117 112/112/113 114/114/115
f 150/150/152 162/162/165 110/110/111
f 155/155/157 157/157/159 163/163/166
f 117/117/118 158/158/161 147/147/148
f 55/55/55 164/164/167 135/135/136
f 124/124/125 105/105/106 57/57/57
f 124/124/125 57/57/57 56/56/56
f 136/136/137 137/137/138 117/117/118
f 56/56/56 126/126/127 129/129/130
f 161/161/164 160/160/163 165/165/168
f 158/158/161 118/118/119 156/156/158
f 144/144/145 115/115/116 166/166/169
f 167/167/170 133/133/134 168/168/171
f 89/89/89 169/169/172 134/134/135
f 113/113/114 4/4/4 7/7/7
f 128/128/129 165/165/168 158/158/161
f 167/167/170 101/101/102 170/170/173
f 145/145/146 162/162/165 150/150/152
f 171/171/174 42/42/42 120/120/121
f 120/120/121 42/42/42 121/121/122
f 123/123/124 163/163/166 68/68/68
f 146/146/147 97/97/97 139/139/140
f 152/152/154 139/139/151 149/149/150
f 125/125/126 100/100/101 84/84/84
f 172/172/175 135/135/136 124/124/125
f 140/140/141 57/57/57 105/105/106
f 170/170/173 101/101/102 109/109/110
f 138/138/139 144/144/145 148/148/149
f 148/148/149 144/144/145 159/159/162
f 56/56/56 129/129/130 155/155/157
f 119/119/120 38/38/38 154/154/156
f 116/116/117 114/114/115 75/75/75
f 57/57/57 20/20/20 22/22/22
f 40/40/40 15/15/15 14/14/14
f 25/25/25 17/17/17 19/19/19
f 25/25/25 24/24/24 17/17/17
f 88/88/88 53/53/53 89/89/89
f 48/48/48 76/76/76 59/59/59
f 17/17/17 33/33/33 173/173/176
f 16/16/16 15/15/15 27/27/27
f 76/76/76 48/48/48 29/29/29
f 69/69/69 16/16/16 74/74/74
f 31/31/31 96/96/96 32/32/32
f 25/25/25 63/63/63 66/66/66
f 107/107/108 47/47/47 96/96/96
f 63/63/63 49/49/49 1/1/1
f 173/173/176 58/58/58 72/72/72
f 107/107/108 45/45/45 47/47/47
f 58/58/58 173/173/176 33/33/33
f 45/45/45 102/102/103 46/46/46
f 45/45/45 103/103/104 102/102/103
f 11/11/11 15/15/15 40/40/40
f 72/72/72 19/19/19 18/18/18 173/173/176
f 58/58/58 41/41/41 28/28/28
f 52/52/52 12/12/12 64/64/64
f 33/33/33 106/106/107 58/58/58
f 35/35/35 34/34/34 61/61/61
f 30/30/30 72/72/72 58/58/58
f 44/44/44 48/48/48 43/43/43
f 62/62/62 90/90/90 100/100/101 110/110/111
f 39/39/39 25/25/25 66/66/66
f 55/55/55 172/172/175 68/68/68
f 68/68/68 172/172/175 124/124/125
f 63/63/63 1/1/1 66/66/66
f 49/49/49 8/8/8 2/2/2
f 51/51/51 83/83/83 87/87/87
f 9/9/9 43/43/43 76/76/76
f 43/43/43 49/49/49 63/63/63
f 173/173/176 18/18/18 17/17/17
f 7/7/7 4/4/4 8/8/8
f 24/24/24 16/16/16 69/69/69
f 32/32/32 95/95/95 42/42/42
f 92/92/92 86/86/86 127/127/128
f 13/13/13 87/87/87 77/77/77
f 58/58/58 106/106/107 31/31/31
f 77/77/77 79/79/79 91/91/91
f 29/29/29 171/171/174 76/76/76
f 19/19/19 43/43/43 25/25/25
f 94/94/94 45/45/45 107/107/108
f 94/94/94 108/108/109 45/45/45
f 121/121/122 95/95/95 97/97/97
f 86/86/98 92/92/92 98/98/99
f 12/12/12 87/87/87 13/13/13
f 15/15/15 11/11/11 27/27/27
f 33/33/33 35/35/35 106/106/107
f 73/73/73 93/93/93 74/74/74
f 34/34/34 17/17/17 70/70/70
f 85/85/85 84/84/84 100/100/101
f 69/69/69 74/74/74 90/90/90
f 65/65/65 74/74/74 27/27/27
f 141/141/142 105/105/106 4/4/4
f 23/23/23 126/126/127 22/22/22
f 174/174/177 159/159/162 144/144/145 166/166/169
f 111/111/112 109/109/110 108/108/109
f 6/6/6 8/8/8 4/4/4
f 92/92/92 91/91/91 98/98/99
f 121/121/122 175/175/178 142/142/143
f 146/146/147 175/175/178 121/121/122
f 146/146/179 139/139/151 152/152/154
f 6/6/6 2/2/2 8/8/8
f 46/46/46 102/102/103 139/139/140
f 131/131/132 150/150/152 132/132/133
f 26/26/26 13/13/13 77/77/77
f 92/92/92 127/127/128 26/26/26
f 125/125/126 132/132/133 100/100/101
f 93/93/93 73/73/73 90/90/90
f 133/133/134 170/170/173 109/109/110
f 70/70/70 69/69/69 62/62/62
f 65/65/65 26/26/26 127/127/128
f 109/109/110 101/101/102 103/103/104
f 132/132/133 110/110/111 100/100/101
f 45/45/45 108/108/109 103/103/104
f 166/166/169 115/115/116 174/174/177
f 3/3/3 67/67/67 5/5/5
f 67/67/67 6/6/6 5/5/5
f 28/28/28 32/32/32 29/29/29
f 114/114/115 10/10/10 9/9/9
f 96/96/96 31/31/31 107/107/108
f 73/73/73 127/127/128 85/85/85
f 171/171/174 29/29/29 42/42/42
f 165/165/168 143/143/144 147/147/148
f 60/60/60 108/108/109 61/61/61
f 135/135/136 164/164/167 83/83/83
f 139/139/140 96/96/96 47/47/47
f 141/141/142 140/140/141 105/105/106
f 139/139/140 47/47/47 46/46/46
f 136/136/137 117/117/118 153/153/155
f 135/135/136 83/83/83 71/71/71
f 101/101/102 137/137/138 130/130/131
f 143/143/144 142/142/143 146/146/147
f 171/171/174 75/75/75 76/76/76
f 82/82/82 168/168/171 145/145/146
f 147/147/160 151/151/153 153/153/155
f 160/160/163 122/122/123 143/143/144
f 122/122/123 171/171/174 120/120/121
f 121/121/122 42/42/42 95/95/95
f 147/147/160 146/146/179 152/152/154
f 174/174/177 171/171/174 160/160/163
f 167/167/170 81/81/81 101/101/102
f 161/161/164 23/23/23 148/148/149
f 140/140/141 138/138/139 20/20/20
f 146/146/147 142/142/143 175/175/178
f 21/21/21 138/138/139 148/148/149
f 171/171/174 174/174/177 75/75/75
f 91/91/91 54/54/54 88/88/88
f 123/123/124 155/155/157 163/163/166
f 153/153/155 152/152/154 149/149/150
f 169/169/172 163/163/166 157/157/159
f 88/88/88 54/54/54 53/53/53
f 23/23/23 161/161/164 165/165/168
f 158/158/161 165/165/168 147/147/148
f 145/145/146 168/168/171 162/162/165
f 144/144/145 140/140/141 141/141/142
f 10/10/10 113/113/114 7/7/7
f 157/157/159 155/155/157 156/156/158
f 119/119/120 154/154/156 125/125/126
f 168/168/171 81/81/81 167/167/170
f 129/129/130 128/128/129 158/158/161
f 165/165/168 128/128/129 23/23/23
f 36/36/36 89/89/89 134/134/135
f 144/144/145 112/112/113 115/115/116
f 133/133/134 167/167/170 170/170/173
f 162/162/165 133/133/134 110/110/111
f 168/168/171 82/82/82 81/81/81
f 172/172/175 55/55/55 135/135/136
f 55/55/55 54/54/54 164/164/167
f 115/115/116 75/75/75 174/174/177
f 160/160/163 171/171/174 122/122/123
f 154/154/156 38/38/38 37/37/37
f 165/165/168 160/160/163 143/143/144
f 126/126/127 23/23/23 129/129/130
f 147/147/160 152/152/154 151/151/153
f 164/164/167 54/54/54 83/83/83
f 134/134/135 80/80/80 82/82/82
f 159/159/162 174/174/177 160/160/163
f 89/89/89 163/163/166 169/169/172
f 129/129/130 158/158/161 156/156/158
f 135/135/136 5/5/5 104/104/105
f 154/154/156 131/131/132 125/125/126
f 80/80/80 156/156/158 118/118/119
f 162/162/165 168/168/171 133/133/134
f 56/56/56 155/155/157 123/123/124
f 89/89/89 68/68/68 163/163/166
f 121/121/122 97/97/97 146/146/147
f 148/148/149 159/159/162 161/161/164
f 119/119/120 88/88/88 38/38/38
f 154/154/156 145/145/146 131/131/132
f 157/157/159 134/134/135 169/169/172
