# Blender v2.79 (sub 0) OBJ File: ''
# www.blender.org
mtllib ruinsPillar.mtl
o Untitled.001_RuinPillarOne100
v -18.863832 215.937103 14.032774
v -20.208525 129.647736 13.423700
v -8.654301 18.093410 22.090302
v -7.792083 130.141388 22.605473
v 24.605427 228.887070 -0.613620
v 19.912386 228.887070 7.221343
v 23.547014 129.926422 -0.491248
v 19.204233 130.975449 -8.809997
v -20.300934 216.359238 -9.659621
v -24.711765 129.737808 -0.791180
v -24.425064 231.198105 0.703419
v 18.088608 223.650421 -13.968919
v 18.415409 130.192169 13.398281
v 19.774624 18.099943 14.254013
v 23.183434 18.091345 0.340436
v -8.505447 18.099955 -24.670139
v -18.639277 18.126816 -15.574286
v -8.009235 129.858398 -23.653425
v -7.805049 229.877792 22.943392
v -34.278286 -3.243695 33.095158
v -34.278286 -3.243673 -34.356724
v 33.173595 -3.243673 -34.356724
v 33.173595 -3.243695 33.095158
v -21.152676 18.099943 14.254022
v 8.619231 219.647095 21.303322
v 7.081961 130.022552 22.818485
v 19.774624 228.887070 14.254082
v 7.127386 18.099955 -24.670147
v 19.774616 18.099951 -15.481399
v 7.127391 18.099939 23.442764
v -25.983486 18.099947 -0.613686
v -34.278286 16.337696 -34.356716
v 33.173595 18.324671 -34.356716
v 33.173595 17.047239 33.095165
v -34.278286 16.337765 33.095165
v -19.598532 130.098251 -14.130454
v 18.220030 129.983932 -14.714615
v -19.082863 216.234802 -14.555556
v 7.084140 130.060898 -24.326437
v -9.447854 229.040421 -21.998735
v 19.204233 18.099951 -8.810035
v 5.605845 220.105057 -24.202219
vt 0.257295 1.006951
vt 0.373348 1.006951
vt 0.278734 1.677120
vt 0.785317 0.993300
vt 0.728963 0.993300
vt 0.772767 0.121440
vt 0.500000 1.775070
vt 0.407075 1.775070
vt 0.442643 1.006951
vt 0.597211 1.006951
vt 0.392712 1.676789
vt 0.376455 1.006951
vt 0.460049 1.006951
vt 0.460049 1.775070
vt 0.618862 1.730184
vt 0.323664 0.121440
vt 0.484237 0.121440
vt 0.395853 0.993300
vt 0.214683 0.121440
vt 0.271014 0.121440
vt 0.214683 0.993300
vt 0.373348 1.775070
vt 0.999501 0.000500
vt 0.999500 0.999501
vt 0.000500 0.999500
vt 0.000500 0.000500
vt 0.257295 0.121440
vt 0.373348 0.121440
vt 0.281783 0.993300
vt 0.214683 1.006951
vt 0.273222 1.006951
vt 0.240021 1.705416
vt 0.323664 1.006951
vt 0.323664 1.775070
vt 0.742705 0.676336
vt 0.592705 0.785317
vt 0.407295 0.785317
vt 0.257295 0.676336
vt 0.200000 0.500000
vt 0.257295 0.323664
vt 0.407295 0.214683
vt 0.592705 0.214683
vt 0.742705 0.323664
vt 0.800000 0.500000
vt 0.000500 0.011935
vt 0.999500 0.011935
vt 0.999500 0.301946
vt 0.000500 0.331374
vt 0.999500 0.331374
vt 0.000500 0.312455
vt 0.000500 0.011935
vt 0.999500 0.011935
vt 0.999500 0.301948
vt 0.000500 0.301946
vt 0.000500 0.011935
vt 0.999500 0.011935
vt 0.000500 0.011935
vt 0.999500 0.011935
vt 0.999500 0.312455
vt 0.000500 0.301948
vt 0.706339 1.006951
vt 0.742705 1.775070
vt 0.633705 1.705416
vt 0.676336 1.006951
vt 0.264060 0.597211
vt 0.222906 0.498946
vt 0.279702 0.660078
vt 0.323664 1.676789
vt 0.597211 0.121440
vt 0.676336 0.121440
vt 0.613148 0.993300
vt 0.790558 0.484237
vt 0.742705 0.676336
vt 0.735940 0.597211
vt 0.500000 0.993300
vt 0.713193 0.121440
vt 0.689626 0.993300
vt 0.615267 0.993300
vt 0.719816 1.676789
vt 0.615267 1.775070
vt 0.615267 1.006951
vt 0.742705 1.006951
vt 0.999501 0.999500
vt 0.000500 0.999501
vt 0.022662 0.022639
vt 0.999500 0.000500
vt 0.633705 0.993300
vt 0.633705 0.121440
vt 0.742705 0.121440
vt 0.742705 0.993300
vt 0.379665 1.706147
vt 0.305446 1.730184
vt 0.257295 1.006951
vt 0.379665 1.006950
vt 0.310232 0.993300
vt 0.257295 0.121440
vt 0.379665 0.121440
vt 0.379665 0.993300
vt 0.425186 1.706147
vt 0.407295 1.006950
vt 0.592705 1.006951
vt 0.592705 1.775070
vt 0.376371 0.993300
vt 0.323664 0.121440
vt 0.460049 0.121440
vt 0.460049 0.993300
vt 0.407295 0.993300
vt 0.407295 0.121440
vt 0.592705 0.121440
vt 0.592705 0.993300
vt 0.659635 1.677120
vt 0.534936 1.775070
vt 0.534936 1.006951
vt 0.676336 1.006951
vt 0.534936 0.993300
vt 0.534936 0.121440
vt 0.676336 0.121440
vt 0.676336 0.993300
vt 0.407295 1.006951
vt 0.592705 1.006951
vt 0.592705 1.705416
vt 0.416492 1.775070
vt 0.407295 0.993300
vt 0.407295 0.121440
vt 0.592705 0.121440
vt 0.592705 0.993300
vt 0.610452 0.240021
vt 0.742705 0.323664
vt 0.744339 0.407075
vt 0.800000 0.500000
vt 0.700211 0.654027
vt 0.574814 0.779306
vt 0.394814 0.754156
vt 0.280184 0.679100
vt 0.267397 0.607288
vt 0.219849 0.481033
vt 0.280189 0.330346
vt 0.416492 0.218411
vn -0.5947 0.0036 0.8040
vn -0.5946 0.0009 0.8040
vn 0.8578 -0.0085 0.5138
vn 0.8859 -0.0100 -0.4638
vn -0.9338 0.0109 -0.3576
vn -0.9250 0.0082 -0.3799
vn 0.9007 -0.0133 -0.4343
vn 0.9712 0.0136 0.2379
vn -0.6679 0.0097 -0.7442
vn -0.6253 -0.0027 0.7804
vn 0.0000 -1.0000 -0.0000
vn -0.5312 0.0108 0.8472
vn 0.6392 0.0020 0.7690
vn 0.9380 0.0075 0.3464
vn 0.9997 -0.0139 0.0196
vn 0.0000 -1.0000 0.0030
vn 0.0005 -1.0000 -0.0006
vn -0.0009 -1.0000 0.0003
vn 0.0005 -1.0000 0.0008
vn 0.0006 -1.0000 -0.0017
vn -0.0001 -1.0000 0.0003
vn -0.0005 -1.0000 -0.0009
vn 0.0022 -1.0000 -0.0007
vn 0.0000 0.0000 -1.0000
vn 1.0000 0.0000 0.0000
vn -1.0000 0.0000 0.0000
vn 0.0000 -0.0000 1.0000
vn 0.5428 -0.0148 0.8397
vn 0.9863 0.0027 -0.1649
vn 0.6205 0.7499 -0.2294
vn -0.9704 0.0046 -0.2415
vn 0.9963 0.0133 0.0852
vn 0.0018 1.0000 0.0002
vn 0.8200 0.5602 0.1176
vn 0.7846 -0.6078 0.1224
vn 0.7679 0.6375 -0.0633
vn 0.9553 -0.2956 0.0063
vn -0.2691 0.0805 -0.9597
vn -0.3492 0.2515 -0.9026
vn -0.3102 -0.7338 -0.6044
vn -0.6830 0.1980 -0.7030
vn -0.3329 0.2589 -0.9067
vn 0.5704 0.5889 -0.5726
vn -0.5850 0.5680 -0.5789
vn -0.5819 0.5704 0.5797
vn 0.5756 0.5746 0.5818
vn 0.5946 0.4311 0.6786
vn 0.2058 -0.6499 0.7316
vn 0.7065 -0.6115 0.3564
vn 0.8460 0.5331 -0.0049
vn 0.2152 0.2804 -0.9355
vn 0.2932 0.5296 -0.7960
vn 0.4912 -0.3863 -0.7807
vn 0.2576 0.5927 -0.7631
vn 0.7092 -0.6185 -0.3384
vn 0.2393 -0.6422 -0.7282
vn -0.7524 -0.6567 -0.0509
vn -0.8764 -0.0244 -0.4810
vn 0.7291 0.6695 0.1423
vn 0.8113 0.5738 -0.1116
vn 0.9401 -0.3234 0.1082
vn -0.3438 -0.6192 -0.7060
vn 0.1479 0.7204 0.6776
vn -0.1216 0.9811 -0.1508
vn -0.4963 0.0178 0.8680
vn -0.5872 -0.6156 0.5257
vn -0.6603 0.0423 0.7498
vn 0.6152 0.3519 0.7054
vn -0.1653 0.9861 -0.0192
vn -0.4486 -0.6127 0.6507
vn 0.4370 0.7985 0.4141
vn 0.1635 0.9240 -0.3456
vn 0.5779 0.8147 0.0484
vn -0.7003 0.6573 -0.2786
usemtl ConcreteRuff01
s off
f 2/1/1 4/2/1 1/3/1
f 4/4/2 2/5/2 3/6/2
f 5/7/3 6/8/3 7/9/3
f 7/9/4 8/10/4 5/7/4
f 9/11/5 36/12/5 10/13/5
f 10/13/6 11/14/6 9/11/6
f 12/15/7 5/7/7 8/10/7
f 14/16/8 15/17/8 13/18/8
f 16/19/9 17/20/9 18/21/9
f 4/2/10 19/22/10 1/3/10
f 20/23/11 21/24/11 22/25/11
f 22/25/11 23/26/11 20/23/11
f 24/27/12 3/28/12 2/29/12
f 26/30/13 13/31/13 25/32/13
f 13/33/14 7/9/14 6/8/14
f 6/8/15 27/34/15 13/33/15
f 17/35/16 16/36/16 28/37/16
f 28/37/17 29/38/17 15/39/17
f 17/35/18 28/37/18 15/39/18
f 15/39/19 14/40/19 30/41/19
f 30/41/20 3/42/20 24/43/20
f 15/39/21 30/41/21 24/43/21
f 17/35/22 15/39/22 24/43/22
f 17/35/23 24/43/23 31/44/23
f 22/45/24 21/46/24 32/47/24
f 32/47/24 33/48/24 22/45/24
f 33/49/25 34/50/25 23/51/25
f 23/51/25 22/52/25 33/49/25
f 35/53/26 32/54/26 21/55/26
f 21/55/26 20/56/26 35/53/26
f 20/57/27 23/58/27 34/59/27
f 34/59/27 35/60/27 20/57/27
f 13/61/28 27/62/28 25/63/28
f 8/10/29 37/64/29 12/15/29
f 8/65/30 7/66/30 37/67/30
f 9/11/31 38/68/31 36/12/31
f 41/69/32 29/70/32 37/71/32
f 15/72/33 29/73/33 41/74/33
s 1
f 7/75/34 15/17/35 41/69/36
f 41/69/36 37/71/37 7/75/34
f 17/76/38 36/77/39 18/78/40
f 38/79/41 40/80/42 18/81/40
f 18/81/40 36/82/39 38/79/41
f 33/83/43 32/84/44 35/85/45
f 35/85/45 34/86/46 33/83/43
f 26/87/47 30/88/48 14/89/49
f 14/89/49 13/90/50 26/87/47
f 42/91/51 12/92/52 37/93/53
f 37/93/53 39/94/54 42/91/51
f 37/95/53 29/96/55 28/97/56
f 28/97/56 39/98/54 37/95/53
f 42/99/51 39/100/54 18/101/40
f 18/101/40 40/102/42 42/99/51
f 36/103/39 17/104/38 31/105/57
f 31/105/57 10/106/58 36/103/39
f 15/17/59 7/75/60 13/18/61
f 39/107/54 28/108/56 16/109/62
f 16/109/62 18/110/40 39/107/54
f 1/111/63 11/112/64 10/113/58
f 10/113/58 2/114/65 1/111/63
f 10/115/58 31/116/57 24/117/66
f 24/117/66 2/118/65 10/115/58
f 4/119/67 26/120/47 25/121/68
f 25/121/68 19/122/69 4/119/67
f 4/123/67 3/124/70 30/125/48
f 30/125/48 26/126/47 4/123/67
f 25/127/68 27/128/71 6/129/72
f 25/127/68 6/129/72 5/130/73
f 5/130/73 12/131/52 42/132/51
f 40/133/42 38/134/41 9/135/74
f 42/132/51 40/133/42 9/135/74
f 9/135/74 11/136/64 1/137/63
f 42/132/51 9/135/74 1/137/63
f 5/130/73 42/132/51 1/137/63
f 25/127/68 5/130/73 1/137/63
f 25/127/68 1/137/63 19/138/69
