# Blender v2.79 (sub 0) OBJ File: ''
# www.blender.org
mtllib ruinsFoundation.mtl
o Untitled_foundationRuinOne200
v -326.669647 178.566147 -273.278717
v -326.669678 175.886703 -133.949249
v -255.924454 175.886688 -133.949234
v -255.924408 178.566147 -273.278687
v -326.669647 122.454681 -275.958130
v -255.924408 122.454674 -275.958130
v -326.669617 125.134094 -364.378784
v -255.924393 125.134094 -364.378754
v -326.669617 36.822617 -364.378784
v -255.924393 36.822632 -364.378784
v -326.669617 36.822643 -450.119995
v -255.924362 36.822639 -450.119995
v -326.669617 -3.274341 -447.440552
v -255.924377 -3.274349 -447.440552
v -326.669708 -3.274376 -133.949280
v -255.924469 -3.274384 -133.949265
v 324.939301 -3.440521 -3.682039
v -182.611694 -2.916801 -3.681977
v -182.611679 -2.916790 -74.427231
v 324.939362 -3.440510 -74.427261
v 317.142365 51.695129 -3.682030
v 317.142365 51.695137 -74.427254
v 235.296448 59.256809 -3.682029
v 235.296478 59.256817 -74.427284
v 235.202026 131.613068 -3.682017
v 235.202057 131.613068 -74.427269
v 179.924683 131.613068 -3.682047
v 179.924713 131.613083 -74.427284
v 180.518066 79.610344 -3.682055
v 180.518097 79.610352 -74.427292
v 63.241608 79.708725 -3.681903
v 63.241638 79.708733 -74.427322
v 62.941101 129.495941 -3.681895
v 62.941132 129.495956 -74.427315
v -14.009552 134.145844 -3.681924
v -14.009536 134.145859 -74.427162
v -21.778091 173.926071 -3.681918
v -21.778076 173.926086 -74.350754
v -182.218231 173.266541 -3.681948
v -182.218201 173.266556 -74.427200
v -386.695801 -4.609848 -135.775421
v -386.695801 -4.609843 69.402191
v -386.695770 334.362457 69.402245
v -386.695740 334.362488 -135.775391
v -181.518173 -4.609864 -135.775406
v -181.518188 -4.609881 69.402252
v -181.518158 334.362427 69.402306
v -181.518127 334.362457 -135.775391
v -216.591614 334.736328 -36.337776
v -254.892319 334.736359 -121.862785
v -208.080795 334.736359 -142.826447
v -169.780090 334.736328 -57.301521
v -216.591614 370.581909 -36.337799
v -169.780090 370.581879 -57.301514
v -208.080780 370.581909 -142.826447
v -254.892319 370.581909 -121.862778
v -251.835693 334.736328 69.401421
v -221.335114 334.736328 -19.205420
v -172.836731 334.736328 -2.511083
v -203.337311 334.736328 86.095695
v -251.835693 370.581909 69.401398
v -203.337296 370.581909 86.095673
v -172.836716 370.581909 -2.511110
v -221.335114 370.581909 -19.205444
v -407.763092 334.736328 19.803644
v -377.262482 334.736328 -68.803169
v -328.764099 334.736328 -52.108864
v -359.264679 334.736328 36.497948
v -407.763092 370.581909 19.803619
v -359.264679 370.581909 36.497925
v -328.764099 370.581879 -52.108856
v -377.262482 370.581879 -68.803162
vt 0.451797 0.582579
vt 0.093714 0.582579
vt 0.093714 0.468294
vt 0.451797 0.468294
vt 0.421331 0.582579
vt 0.277122 0.582579
vt 0.277122 0.468294
vt 0.421331 0.468294
vt 0.685928 0.582579
vt 0.458683 0.582579
vt 0.458683 0.468294
vt 0.685928 0.468294
vt 0.641409 0.582579
vt 0.414445 0.582579
vt 0.414445 0.468294
vt 0.641409 0.468294
vt 0.906286 0.582579
vt 0.685928 0.582579
vt 0.685928 0.468294
vt 0.906286 0.468294
vt 0.744460 0.582579
vt 0.641409 0.582579
vt 0.641409 0.468294
vt 0.744460 0.468294
vt 0.906286 0.582579
vt 0.100600 0.582579
vt 0.100600 0.468294
vt 0.906286 0.468294
vt 0.715991 0.582579
vt 0.255540 0.582579
vt 0.255540 0.468294
vt 0.715991 0.468294
vt 1.152214 0.583357
vt -0.152214 0.583357
vt -0.152214 0.469071
vt 1.152214 0.469071
vt 0.583357 0.586219
vt 0.583357 0.727920
vt 0.469071 0.727920
vt 0.469071 0.586219
vt 0.078172 0.583357
vt -0.132175 0.583357
vt -0.132175 0.469071
vt 0.078172 0.469071
vt 0.583357 0.380827
vt 0.583357 0.566785
vt 0.469071 0.566785
vt 0.469071 0.380827
vt 0.220480 0.583357
vt 0.078415 0.583357
vt 0.078415 0.469071
vt 0.220480 0.469071
vt 0.416643 0.514476
vt 0.416643 0.380827
vt 0.530929 0.380827
vt 0.530929 0.514476
vt 0.520360 0.583357
vt 0.218955 0.583357
vt 0.218955 0.469071
vt 0.520360 0.469071
vt 0.583357 0.386268
vt 0.583357 0.514223
vt 0.469071 0.514223
vt 0.469071 0.386268
vt 0.718899 0.583357
vt 0.521133 0.583357
vt 0.521133 0.469071
vt 0.718899 0.469071
vt 0.583357 0.272080
vt 0.583357 0.374317
vt 0.469071 0.374317
vt 0.469195 0.272080
vt 1.151202 0.583357
vt 0.738864 0.583357
vt 0.738864 0.469195
vt 1.151202 0.469071
vt 0.416643 0.726574
vt 0.416643 0.273775
vt 0.530929 0.273775
vt 0.530929 0.726574
vt 0.362878 0.151563
vt 0.694333 0.151563
vt 0.694333 1.022736
vt 0.362878 1.022736
vt 0.458683 0.578669
vt 0.451797 0.722878
vt 0.093714 0.715991
vt 0.899400 0.255540
vt 0.906286 0.358591
vt 0.685928 0.358591
vt 0.093714 0.255540
vt 0.685928 0.585555
vt 0.281101 0.374317
vt 0.478867 0.386268
vt 0.479640 0.514223
vt 0.781045 0.514476
vt 0.779520 0.380827
vt 0.921585 0.380827
vt 0.921828 0.566785
vt 1.132175 0.586219
vt 1.152214 0.727920
vt -0.152214 0.726574
vt -0.151202 0.273775
vt 0.261136 0.272080
vt 0.763658 0.305667
vt 0.763658 0.637122
vt 0.236343 0.637122
vt 0.236343 0.305667
vt 0.541317 0.578669
vt 0.314072 0.585555
vt 0.314072 0.358591
vt 0.093714 0.358591
vt 0.100600 0.255540
vt 0.906286 0.255540
vt 0.906286 0.715991
vt 0.548204 0.722878
vt 0.718899 0.374317
vt 0.738864 0.272080
vt 1.151202 0.273775
vt 1.152214 0.726574
vt -0.152214 0.727920
vt -0.132175 0.586219
vt 0.078172 0.566785
vt 0.078415 0.380827
vt 0.220480 0.380827
vt 0.218955 0.514476
vt 0.520360 0.514223
vt 0.521133 0.386268
vt 0.236343 0.305667
vt 0.763658 0.305667
vt 0.763658 0.637122
vt 0.236343 0.637122
vt 0.236343 0.151563
vt 0.763658 0.151563
vt 0.763658 1.022736
vt 0.236343 1.022736
vt 0.305667 0.151563
vt 0.637122 0.151563
vt 0.637122 1.022736
vt 0.305667 1.022736
vt 0.236343 0.151563
vt 0.763658 0.151563
vt 0.763658 1.022736
vt 0.236343 1.022736
vt 0.999501 0.000500
vt 0.999500 0.999501
vt 0.000499 0.999500
vt 0.000500 0.000500
vt 0.000499 0.000500
vt 0.999500 0.000500
vt 0.999501 0.999500
vt 0.000500 0.999501
vt 0.000499 0.000499
vt 0.999500 0.000499
vt 0.999500 0.999501
vt 0.000499 0.999501
vt 0.999500 0.000499
vt 0.000500 0.999501
vt 0.000499 0.000499
vt 0.999500 0.000499
vt 0.999500 0.999501
vt 0.000499 0.999501
vt 0.000500 0.000499
vt 0.999500 0.999501
vt 0.999501 0.000500
vt 0.999500 0.999501
vt 0.000499 0.999500
vt 0.000500 0.000500
vt 0.000499 0.000500
vt 0.999500 0.000500
vt 0.999501 0.999500
vt 0.000500 0.999501
vt 0.000499 0.000499
vt 0.999500 0.000499
vt 0.999500 0.999501
vt 0.000499 0.999501
vt 0.999500 0.000499
vt 0.000500 0.999501
vt 0.000499 0.000499
vt 0.999500 0.000499
vt 0.999500 0.999501
vt 0.000499 0.999501
vt 0.000500 0.000499
vt 0.999500 0.999501
vt 0.999501 0.000500
vt 0.999500 0.999501
vt 0.000499 0.999500
vt 0.000500 0.000500
vt 0.000499 0.000500
vt 0.999500 0.000500
vt 0.999501 0.999500
vt 0.000500 0.999501
vt 0.000499 0.000499
vt 0.999500 0.000499
vt 0.999500 0.999501
vt 0.000499 0.999501
vt 0.999500 0.000499
vt 0.000500 0.999501
vt 0.000499 0.000499
vt 0.999500 0.000499
vt 0.999500 0.999501
vt 0.000499 0.999501
vt 0.000500 0.000499
vt 0.999500 0.999501
vn 0.0000 0.9998 0.0192
vn 0.0000 0.0477 -0.9989
vn 0.0000 0.9995 0.0303
vn -0.0000 0.0000 -1.0000
vn -0.0000 1.0000 0.0000
vn 0.0000 -0.0667 -0.9978
vn -0.0000 -1.0000 -0.0000
vn -0.0000 -0.0000 1.0000
vn -0.0010 -1.0000 -0.0000
vn 0.9901 0.1400 0.0000
vn 0.0920 0.9958 0.0000
vn 1.0000 0.0013 0.0000
vn -0.9999 -0.0114 -0.0000
vn 0.0008 1.0000 0.0000
vn 1.0000 0.0060 0.0000
vn 0.0603 0.9982 0.0000
vn 0.9815 0.1917 0.0000
vn -0.0041 1.0000 -0.0000
vn -1.0000 0.0022 -0.0000
vn -1.0000 0.0000 -0.0000
vn 1.0000 -0.0000 0.0000
vn 0.0004 0.0014 -1.0000
vn 0.0003 0.0013 -1.0000
vn 0.0005 0.0020 -1.0000
vn 0.4087 0.0000 0.9127
vn 0.9127 -0.0000 -0.4087
vn -0.4087 0.0000 -0.9127
vn -0.9127 -0.0000 0.4087
vn -0.3255 0.0000 0.9455
vn 0.9455 -0.0000 0.3255
vn 0.3255 -0.0000 -0.9455
vn -0.9455 -0.0000 -0.3255
usemtl BrickOldRound1
s 1
f 1/1/1 2/2/1 3/3/1
f 3/3/1 4/4/1 1/1/1
f 5/5/2 1/6/2 4/7/2
f 4/7/2 6/8/2 5/5/2
f 7/9/3 5/10/3 6/11/3
f 6/11/3 8/12/3 7/9/3
f 9/13/4 7/14/4 8/15/4
f 8/15/4 10/16/4 9/13/4
f 11/17/5 9/18/5 10/19/5
f 10/19/5 12/20/5 11/17/5
f 13/21/6 11/22/6 12/23/6
f 12/23/6 14/24/6 13/21/6
f 15/25/7 13/26/7 14/27/7
f 14/27/7 16/28/7 15/25/7
f 2/29/8 15/30/8 16/31/8
f 16/31/8 3/32/8 2/29/8
f 17/33/9 18/34/9 19/35/9
f 19/35/9 20/36/9 17/33/9
f 21/37/10 17/38/10 20/39/10
f 20/39/10 22/40/10 21/37/10
f 23/41/11 21/42/11 22/43/11
f 22/43/11 24/44/11 23/41/11
f 25/45/12 23/46/12 24/47/12
f 24/47/12 26/48/12 25/45/12
f 27/49/5 25/50/5 26/51/5
f 26/51/5 28/52/5 27/49/5
f 29/53/13 27/54/13 28/55/13
f 28/55/13 30/56/13 29/53/13
f 31/57/14 29/58/14 30/59/14
f 30/59/14 32/60/14 31/57/14
f 33/61/15 31/62/15 32/63/15
f 32/63/15 34/64/15 33/61/15
f 35/65/16 33/66/16 34/67/16
f 34/67/16 36/68/16 35/65/16
f 37/69/17 35/70/17 36/71/17
f 36/71/17 38/72/17 37/69/17
f 39/73/18 37/74/18 38/75/18
f 38/75/18 40/76/18 39/73/18
f 18/77/19 39/78/19 40/79/19
f 40/79/19 19/80/19 18/77/19
f 41/81/20 42/82/20 43/83/20
f 43/83/20 44/84/20 41/81/20
f 6/85/21 4/86/21 3/87/21
f 14/88/21 12/89/21 10/90/21
f 16/91/21 14/88/21 10/90/21
f 3/87/21 16/91/21 10/90/21
f 6/85/21 3/87/21 10/90/21
f 6/85/21 10/90/21 8/92/21
f 36/93/22 34/94/4 32/95/4
f 30/96/4 28/97/4 26/98/4
f 30/96/4 26/98/4 24/99/4
f 22/100/4 20/101/4 19/102/4
f 24/99/4 22/100/4 19/102/4
f 30/96/4 24/99/4 19/102/4
f 32/95/4 30/96/4 19/102/4
f 32/95/4 19/102/4 40/103/23
f 36/93/22 32/95/4 40/103/23
f 36/93/22 40/103/23 38/104/24
f 42/105/7 41/106/7 45/107/7
f 45/107/7 46/108/7 42/105/7
f 5/109/20 7/110/20 9/111/20
f 9/111/20 11/112/20 13/113/20
f 9/111/20 13/113/20 15/114/20
f 9/111/20 15/114/20 2/115/20
f 5/109/20 9/111/20 2/115/20
f 5/109/20 2/115/20 1/116/20
f 35/117/8 37/118/8 39/119/8
f 18/120/8 17/121/8 21/122/8
f 18/120/8 21/122/8 23/123/8
f 25/124/8 27/125/8 29/126/8
f 23/123/8 25/124/8 29/126/8
f 18/120/8 23/123/8 29/126/8
f 18/120/8 29/126/8 31/127/8
f 39/119/8 18/120/8 31/127/8
f 35/117/8 39/119/8 31/127/8
f 35/117/8 31/127/8 33/128/8
f 43/129/5 47/130/5 48/131/5
f 48/131/5 44/132/5 43/129/5
f 42/133/8 46/134/8 47/135/8
f 47/135/8 43/136/8 42/133/8
f 46/137/21 45/138/21 48/139/21
f 48/139/21 47/140/21 46/137/21
f 45/141/4 41/142/4 44/143/4
f 44/143/4 48/144/4 45/141/4
usemtl LoneBrick1
f 49/145/7 50/146/7 51/147/7
f 51/147/7 52/148/7 49/145/7
f 53/149/5 54/150/5 55/151/5
f 55/151/5 56/152/5 53/149/5
f 49/153/25 52/154/25 54/155/25
f 54/155/25 53/156/25 49/153/25
f 52/148/26 51/157/26 55/151/26
f 55/151/26 54/158/26 52/148/26
f 51/159/27 50/160/27 56/161/27
f 56/161/27 55/162/27 51/159/27
f 50/163/28 49/145/28 53/164/28
f 53/164/28 56/152/28 50/163/28
f 57/165/7 58/166/7 59/167/7
f 59/167/7 60/168/7 57/165/7
f 61/169/5 62/170/5 63/171/5
f 63/171/5 64/172/5 61/169/5
f 57/173/29 60/174/29 62/175/29
f 62/175/29 61/176/29 57/173/29
f 60/168/30 59/177/30 63/171/30
f 63/171/30 62/178/30 60/168/30
f 59/179/31 58/180/31 64/181/31
f 64/181/31 63/182/31 59/179/31
f 58/183/32 57/165/32 61/184/32
f 61/184/32 64/172/32 58/183/32
f 65/185/7 66/186/7 67/187/7
f 67/187/7 68/188/7 65/185/7
f 69/189/5 70/190/5 71/191/5
f 71/191/5 72/192/5 69/189/5
f 65/193/29 68/194/29 70/195/29
f 70/195/29 69/196/29 65/193/29
f 68/188/30 67/197/30 71/191/30
f 71/191/30 70/198/30 68/188/30
f 67/199/31 66/200/31 72/201/31
f 72/201/31 71/202/31 67/199/31
f 66/203/32 65/185/32 69/204/32
f 69/204/32 72/192/32 66/203/32
