# Blender v2.79 (sub 0) OBJ File: ''
# www.blender.org
mtllib Whale.mtl
o Whale_Cylinder
v 3.565653 2.130163 -12.495353
v 3.964709 -3.855603 -20.670465
v 2.761583 -0.642429 -20.464512
v 0.933669 -5.401086 -30.096313
v 0.000000 -5.263201 -30.173782
v 0.004359 -0.241704 -21.071838
v 3.735733 -6.224471 -32.235176
v 1.611536 -6.027188 -31.809113
v 0.573606 -6.432415 -29.878912
v 0.000000 -7.223710 -31.450449
v 0.000000 -7.223710 -31.450449
v 0.000000 -6.066378 -31.867054
v 0.000000 -6.066378 -31.867054
v 6.073371 -8.481332 -37.071865
v 5.731564 -7.914299 -37.204063
v 0.309762 -8.383206 -34.666031
v -0.003143 -7.225769 -35.093307
v 2.314396 -7.474167 -35.852055
v 4.354364 -7.831190 -36.977367
v 3.711407 -7.376873 -31.844181
v -3.731319 -6.205050 -32.232071
v 4.804055 -8.319049 -34.496487
v -3.723670 -7.371294 -31.842747
v 0.000000 -7.469417 -32.133034
v 4.424668 -9.010489 -36.607983
v 5.732458 -9.087901 -36.798759
v 4.040695 4.955377 -0.855879
v 0.086958 5.597059 -1.128797
v 4.040695 4.364448 6.513216
v 0.752398 2.579715 -12.709901
v 0.542229 1.413970 -16.233334
v 3.451109 2.153163 13.912613
v 3.110601 3.967631 13.958625
v 2.874042 2.430215 19.216965
v 5.502033 0.236734 6.772014
v 4.689678 0.597530 10.409673
v 4.384518 -3.051744 7.219095
v 3.937287 -3.662918 7.630053
v 0.573783 2.292212 -15.714072
v 0.257913 3.433635 -15.151053
v 0.008815 2.702882 -12.872397
v -0.193668 3.569280 -15.234179
v -0.452033 2.271130 -15.883931
v 0.003653 3.337195 -16.752153
v 10.773556 -10.825212 0.628005
v 10.634797 -13.061910 -2.697392
v 11.104113 -10.148671 0.139209
v 3.586399 -5.476425 -7.282095
v 3.926179 -4.750683 1.258452
v -0.002956 -5.685533 0.392173
v 0.000000 -6.301847 -7.185481
v 8.626274 -10.660116 -1.673878
v 8.984882 -12.449592 -3.950137
v 8.607640 -12.928288 -3.790625
v -2.883624 -0.105481 -18.996315
v -0.824057 1.322998 -16.190498
v -0.641744 2.569796 -12.888659
v -3.421547 -4.303728 -23.431704
v -5.042186 -2.781451 -12.116532
v -2.774644 -5.957865 -17.720619
v -1.545940 -3.334935 -25.678682
v -0.047412 -6.690061 -29.654402
v -0.000002 -6.785770 -19.350624
v -1.344690 -5.968203 -29.964069
v -0.933135 -5.401333 -30.096645
v -1.611536 -6.029359 -31.809252
v -0.573606 -6.432312 -29.878027
v -3.855776 -8.911005 -36.197639
v -3.586399 -5.485488 -7.278694
v -3.453908 2.150490 13.899147
v -2.872073 2.432288 19.216797
v -3.110601 3.967592 13.958540
v -4.698720 0.588989 10.391121
v -5.507816 0.234008 6.771780
v -4.531234 -2.699998 7.075063
v -3.940201 -3.667232 7.638888
v -10.663961 -13.101446 -2.716317
v -9.002425 -12.504490 -3.950137
v -8.633995 -12.990009 -3.790625
v -11.068660 -10.396089 -0.022533
v -10.761776 -10.910664 0.555888
v -2.293312 -7.486120 -35.839970
v -4.373502 -7.881914 -36.979534
v 5.269291 -2.262769 -8.491512
v 5.714403 -0.541565 -0.735090
v 1.545940 -3.334935 -25.678682
v 2.784840 -4.639527 -25.462437
v 1.308468 -5.968372 -29.953106
v 2.677907 -6.000860 -18.187298
v 4.062375 -6.703287 -32.032467
v 0.000000 4.595559 13.941716
v -0.000001 2.930563 19.855576
v 3.603451 -5.070173 1.375004
v 4.095948 1.836917 11.205481
v 8.690567 -5.818305 4.766256
v 6.898576 -7.377826 0.955766
v 8.300834 -6.375504 5.200751
v 6.536958 -7.848939 1.095631
v 8.235649 -11.112057 -1.478811
v -3.910008 -4.817661 1.247439
v -5.715175 -0.546925 -0.734844
v -4.040695 4.955290 -0.855942
v -3.687047 2.067150 -12.642398
v -4.062375 -6.703287 -32.032467
v -6.056983 -8.403479 -37.099224
v -5.721439 -9.135586 -36.779457
v -4.040695 4.364453 6.512947
v -3.595531 -5.169290 1.456011
v -4.095942 1.836798 11.205449
v -8.670413 -5.895152 4.766256
v -6.868484 -7.440799 0.954532
v -8.610725 -10.721970 -1.673878
v -8.277176 -6.448215 5.200751
v -6.501287 -7.912654 1.097260
v -8.227809 -11.182430 -1.478811
v 3.885628 0.934723 13.930389
v 3.504323 1.056810 18.606159
v 2.506091 1.097702 19.637827
v 2.968975 0.306812 18.596697
v -3.885628 0.934666 13.930361
v -3.504323 1.056810 18.606159
v -2.506091 1.097702 19.637827
v -2.968975 0.306812 18.596697
v 0.000000 -4.255210 7.670733
v 3.069023 -1.141388 13.998145
v 0.000000 -1.723246 14.014562
v 0.000000 1.077570 20.199381
v 0.000000 -0.277703 18.613514
v -3.069023 -1.141434 13.998174
vn 0.9524 0.2664 -0.1486
vn 0.9300 0.3167 -0.1865
vn 0.9100 0.3545 -0.2152
vn 0.1669 0.8754 -0.4537
vn 0.1669 0.8775 -0.4495
vn 0.1670 0.8633 -0.4763
vn 0.0200 0.9416 -0.3363
vn 0.0050 0.9394 -0.3428
vn 0.0088 0.9306 -0.3660
vn 0.4497 -0.8529 0.2653
vn 0.1005 -0.1906 0.9765
vn 0.0000 0.0000 1.0000
vn 0.8190 0.4103 -0.4012
vn 0.4366 0.4820 -0.7597
vn 0.6991 0.6017 0.3862
vn 0.0208 -0.3161 -0.9485
vn 0.0407 0.5507 -0.8337
vn -0.1082 0.7986 -0.5921
vn -0.2317 0.6251 -0.7454
vn 0.0105 -0.8946 0.4467
vn -0.0063 0.9289 -0.3704
vn -0.0103 0.9378 -0.3469
vn -0.4564 0.8865 0.0761
vn -0.0001 -0.9427 0.3336
vn 0.5066 -0.7341 0.4521
vn -0.4343 -0.7813 0.4484
vn 0.0004 -0.9409 0.3387
vn -0.0845 -0.9758 -0.2017
vn 0.4648 -0.8319 -0.3031
vn 0.1664 0.9833 -0.0734
vn 0.1692 0.9786 -0.1173
vn 0.1544 0.9848 0.0790
vn 0.1746 0.9477 -0.2673
vn 0.1746 0.9479 -0.2665
vn 0.1732 0.9319 -0.3187
vn 0.9565 0.2789 0.0856
vn 0.9787 0.1812 0.0970
vn 0.9434 0.3218 0.0802
vn 0.9763 0.0278 0.2145
vn 0.9603 0.1932 0.2011
vn 0.8799 -0.3523 0.3188
vn 0.8518 -0.3833 0.3570
vn 0.9757 0.2051 -0.0776
vn 0.8983 0.2889 -0.3309
vn 0.9403 0.3188 -0.1189
vn -0.0805 0.9847 0.1542
vn 0.1995 0.9265 0.3189
vn 0.1478 0.9325 0.3294
vn -0.9240 0.1051 -0.3677
vn -0.7373 0.0959 -0.6688
vn 0.1359 -0.6599 -0.7389
vn 0.9258 0.3388 -0.1674
vn 0.8472 -0.3103 0.4312
vn -0.2330 -0.8024 0.5494
vn 0.9034 -0.2054 0.3764
vn 0.2200 -0.9725 0.0764
vn 0.2784 -0.9296 -0.2417
vn 0.2276 -0.9729 0.0414
vn 0.3074 0.7638 -0.5676
vn 0.3510 0.7486 -0.5625
vn 0.2576 0.7789 -0.5718
vn 0.5356 -0.2232 -0.8145
vn 0.6361 0.4833 -0.6015
vn 0.6448 0.3761 -0.6654
vn -0.3394 -0.7739 0.5347
vn -0.3781 0.3348 -0.8631
vn -0.0039 0.9462 -0.3237
vn 0.0448 0.9401 -0.3380
vn -0.1605 0.9305 -0.3293
vn -0.1671 0.9282 -0.3325
vn 0.0755 0.9378 -0.3389
vn -0.9523 0.2918 -0.0894
vn -0.6771 0.7191 -0.1566
vn -0.9133 0.3453 -0.2161
vn -0.7993 0.4869 -0.3522
vn -0.9361 0.3049 -0.1751
vn -0.7392 -0.6646 -0.1088
vn -0.8351 -0.5467 -0.0612
vn -0.8480 -0.5282 -0.0438
vn -0.7519 0.5387 -0.3799
vn 0.3041 -0.9525 0.0182
vn 0.0211 -0.9998 0.0001
vn -0.2559 -0.9665 0.0213
vn -0.2992 0.8357 -0.4605
vn -0.3456 0.8288 -0.4402
vn -0.2933 0.8365 -0.4630
vn -0.4987 -0.8634 0.0768
vn -0.5007 -0.8609 0.0906
vn -0.4967 -0.8657 0.0627
vn -0.1671 0.8775 -0.4495
vn -0.1671 0.8754 -0.4536
vn -0.1672 0.8633 -0.4762
vn -0.0099 0.9401 -0.3408
vn 0.0083 0.9258 -0.3780
vn -0.5059 -0.8304 0.2334
vn -0.1017 -0.1669 0.9807
vn -0.1668 0.8909 -0.4226
vn -0.0115 -0.8949 0.4462
vn 0.0062 0.6421 0.7666
vn 0.0091 0.9377 -0.3474
vn 0.0892 -0.9958 0.0195
vn 0.0249 0.4020 -0.9153
vn 0.4237 0.3720 -0.8259
vn -0.0513 0.3254 -0.9442
vn -0.8466 -0.5306 -0.0418
vn -0.9564 0.2792 0.0859
vn -0.9433 0.3220 0.0804
vn -0.9785 0.1817 0.0974
vn -0.9604 0.1928 0.2011
vn -0.9763 0.0246 0.2152
vn -0.8985 -0.3336 0.2855
vn -0.8809 -0.3575 0.3101
vn -0.9155 0.3905 -0.0969
vn -0.1860 0.9808 -0.0583
vn -0.6349 0.3952 -0.6638
vn -0.5318 -0.2137 -0.8195
vn -0.3729 -0.5326 -0.7598
vn -0.6246 0.5021 -0.5981
vn -0.8451 -0.2906 0.4487
vn 0.2220 -0.8071 0.5470
vn 0.3249 -0.7814 0.5328
vn 0.2472 0.5128 -0.8221
vn 0.1429 0.4088 -0.9014
vn 0.9088 -0.4169 0.0188
vn 0.9537 0.2795 -0.1108
vn 0.1751 0.9552 -0.2387
vn 0.2047 0.9183 -0.3389
vn 0.8238 0.4445 -0.3517
vn 0.3371 0.8300 -0.4445
vn 0.3559 0.8266 -0.4359
vn 0.2455 0.8408 -0.4824
vn 0.3712 -0.9283 0.0195
vn 0.2822 -0.9593 0.0120
vn 0.8056 -0.5844 -0.0975
vn 0.8249 -0.5598 -0.0785
vn 0.8486 -0.5263 -0.0533
vn 0.2299 0.8418 -0.4883
vn 0.7665 0.6421 -0.0166
vn 0.7343 0.5590 -0.3852
vn 0.7450 0.6496 0.1517
vn 0.7357 0.6056 0.3034
vn 0.4820 -0.6738 0.5601
vn 0.1666 0.8909 -0.4226
vn 0.4154 -0.7910 0.4491
vn -0.0026 -0.9423 0.3348
vn 0.6368 -0.5789 -0.5093
vn 0.8484 -0.2879 0.4442
vn 0.4892 -0.2761 0.8273
vn -0.1632 -0.3120 -0.9360
vn 0.0008 0.8697 0.4935
vn 0.9507 0.3100 0.0097
vn 0.2498 0.7055 0.6633
vn 0.2056 0.9396 0.2737
vn 0.2521 0.6543 0.7130
vn 0.2436 -0.9693 0.0328
vn 0.1833 0.9806 0.0692
vn 0.9591 0.2487 -0.1353
vn 0.8632 -0.5035 -0.0366
vn 0.9821 0.1176 -0.1470
vn 0.9199 0.3219 -0.2238
vn 0.9364 -0.3477 0.0468
vn 0.3047 -0.5827 -0.7534
vn 0.9395 0.3007 0.1642
vn 0.9570 0.2482 0.1504
vn 0.9440 0.2861 0.1644
vn 0.9256 0.3372 0.1718
vn 0.4565 0.8072 -0.3743
vn 0.0883 0.9457 0.3129
vn 0.3038 0.9469 -0.1053
vn 0.3779 0.7382 -0.5588
vn 0.5657 0.1775 0.8053
vn -0.2136 -0.1291 -0.9683
vn -0.4891 -0.8098 0.3242
vn -0.7598 0.4470 -0.4722
vn 0.8407 -0.0914 0.5337
vn -0.6334 0.2505 -0.7321
vn -0.4323 -0.7339 0.5239
vn -0.4523 -0.7254 0.5188
vn -0.3996 -0.7469 0.5315
vn -0.4628 -0.2123 -0.8606
vn -0.3617 -0.7605 0.5393
vn 0.3706 -0.5431 -0.7535
vn -0.2116 -0.9746 0.0734
vn -0.2202 -0.9749 0.0325
vn -0.2686 -0.9304 -0.2494
vn -0.9111 -0.4119 0.0144
vn -0.9544 0.2614 -0.1441
vn -0.9564 0.2735 -0.1028
vn -0.9541 0.2601 -0.1483
vn -0.1613 0.9842 -0.0734
vn -0.1644 0.9795 -0.1168
vn -0.1714 0.9562 -0.2373
vn -0.7758 0.6307 -0.0175
vn -0.7501 0.6422 0.1580
vn -0.3546 0.8271 -0.4361
vn -0.7112 -0.6926 -0.1200
vn -0.7377 0.6008 0.3080
vn -0.5172 -0.8059 0.2881
vn -0.7774 0.0220 -0.6286
vn -0.4181 -0.8694 -0.2635
vn -0.8633 -0.2579 0.4338
vn 0.0016 -0.9409 0.3387
vn 0.4576 -0.3049 -0.8353
vn -0.4890 -0.2780 0.8268
vn -0.9506 0.3104 0.0093
vn -0.2053 0.9397 0.2736
vn -0.2497 0.7055 0.6633
vn -0.2520 0.6543 0.7130
vn -0.1480 0.9858 0.0790
vn -0.2428 -0.9695 0.0323
vn -0.1806 0.9812 0.0677
vn -0.9485 0.2431 -0.2031
vn -0.1796 0.9236 -0.3386
vn -0.9367 -0.3470 0.0463
vn -0.9131 0.3167 -0.2568
vn -0.9848 0.0780 -0.1554
vn -0.2977 -0.6698 -0.6803
vn -0.9570 0.2482 0.1504
vn -0.9392 0.3014 0.1645
vn -0.9439 0.2864 0.1645
vn -0.9251 0.3383 0.1723
vn -0.4812 0.7724 -0.4145
vn -0.3606 0.7476 -0.5577
vn -0.3885 0.7356 -0.5549
vn -0.3244 0.7619 -0.5606
vn -0.5671 0.1630 0.8074
vn 0.2699 -0.1801 -0.9459
vn 0.4871 -0.8073 0.3332
vn 0.7679 0.4329 -0.4722
vn -0.8552 -0.0741 0.5130
vn -0.9114 -0.2172 0.3496
vn 0.6351 0.2456 -0.7324
vn 0.4466 -0.7284 0.5196
vn 0.4246 -0.7381 0.5244
vn 0.3908 -0.7518 0.5311
vn 0.3498 -0.7668 0.5381
vn -0.2749 0.7794 -0.5630
vn 0.9279 0.3266 0.1798
vn 0.7189 0.0209 0.6948
vn 0.6299 -0.4575 0.6276
vn -0.9276 0.3274 0.1800
vn -0.7189 0.0220 0.6947
vn -0.6299 -0.4575 0.6276
vn 0.1304 -0.9710 0.2003
vn 0.1562 -0.9141 0.3741
vn 0.2304 0.2019 0.9519
vn 0.8967 -0.4265 0.1188
vn 0.9283 0.3643 0.0746
vn 0.1827 -0.9373 0.2969
vn 0.1508 -0.7524 0.6412
vn 0.9095 -0.3321 0.2498
vn -0.1138 -0.9713 0.2087
vn -0.1551 -0.9141 0.3746
vn -0.2304 0.2019 0.9519
vn -0.8967 -0.4265 0.1188
vn -0.9282 0.3644 0.0747
vn -0.1827 -0.9373 0.2969
vn -0.1508 -0.7524 0.6412
vn -0.9090 -0.3326 0.2512
usemtl Top
s 1
f 1//1 2//2 3//3
f 4//4 5//5 6//6
f 4//7 7//8 8//9
f 9//10 10//11 11//12
f 5//12 12//12 13//12
f 14//13 15//14 7//15
f 16//16 17//17 18//18
f 19//19 15//14 14//13
f 9//20 11//20 20//20
f 12//21 4//22 8//9
f 7//8 17//17 21//23
f 16//24 22//25 23//26
f 23//26 22//25 24//27
f 25//28 26//29 22//25
f 27//30 28//31 29//32
f 30//33 1//34 31//35
f 32//36 33//37 34//38
f 35//39 36//40 37//41
f 38//42 37//41 36//40
f 30//43 39//44 40//45
f 41//46 40//47 42//48
f 43//49 44//50 39//51
f 39//44 44//52 40//45
f 45//53 46//54 47//55
f 48//56 49//57 50//58 51//56
f 52//59 47//60 53//61
f 53//62 47//63 46//64
f 45//53 54//65 46//54
f 18//66 7//67 19//19
f 16//24 25//28 22//25
f 6//68 55//69 56//70 31//71
f 57//72 42//73 43//49
f 55//74 58//75 59//76
f 58//77 60//78 59//79
f 61//80 58//75 55//74
f 62//81 63//82 60//83
f 6//84 61//85 55//86
f 64//87 62//88 58//89
f 5//90 65//91 6//92
f 65//93 66//94 21//23
f 67//95 10//96 62//95
f 5//90 12//97 65//91
f 67//98 23//98 11//98
f 12//99 66//94 65//100
f 16//24 23//26 68//101
f 43//102 31//103 56//104
f 59//79 60//78 69//105
f 70//106 71//107 72//108
f 73//109 74//110 75//111
f 76//112 73//109 75//111
f 57//72 43//49 56//113
f 41//46 42//48 57//114
f 43//49 42//73 44//50
f 77//115 78//116 79//117
f 78//116 77//115 80//118
f 81//119 77//120 79//121
f 82//122 83//123 21//23
f 84//124 85//124 49//124 48//124
f 27//125 85//125 84//125 1//125
f 30//33 41//126 28//31 27//30 1//34
f 3//127 6//68 31//71 1//127
f 86//128 3//128 2//128 87//128
f 86//129 4//130 6//131
f 88//132 89//133 63//82 62//81
f 87//134 2//135 89//136 88//134
f 6//131 3//137 86//129
f 4//138 86//139 87//139 88//140
f 7//15 4//138 88//140 90//141
f 62//81 9//142 88//132
f 7//67 15//14 19//19
f 9//10 62//10 10//11
f 5//5 4//4 12//143
f 20//144 11//145 24//27 22//25
f 22//25 14//146 90//147 20//144
f 11//12 10//12 24//12
f 20//148 90//148 88//148 9//148
f 19//149 14//146 26//29 25//28
f 14//146 22//25 26//29
f 90//141 14//13 7//15
f 7//8 18//18 17//17
f 21//23 13//150 12//21 8//9 7//8
f 29//151 35//151 85//151 27//151
f 34//152 33//153 91//153 92//154
f 31//103 43//102 39//44
f 89//133 48//155 51//155 63//82
f 33//156 29//156 28//156 91//156
f 1//1 84//157 2//2
f 89//136 2//135 84//158 48//158
f 37//159 49//160 85//161 35//161
f 49//57 93//162 50//58
f 94//163 29//164 33//164 32//165
f 36//40 35//39 29//166 94//163
f 95//167 96//167 49//160 37//159
f 41//46 30//168 40//47
f 30//43 31//103 39//44
f 42//73 40//169 44//50
f 47//60 52//59 96//170 95//170
f 97//171 95//171 37//171 38//171
f 96//172 98//172 93//172 49//172
f 97//173 38//173 93//173 98//173
f 53//174 54//174 99//174 52//174
f 45//53 47//55 95//175 97//175
f 52//176 99//176 98//176 96//176
f 45//177 97//178 98//178 99//179
f 18//66 19//19 25//180 16//180
f 99//179 54//181 45//177
f 46//64 54//182 53//62
f 69//183 51//183 50//184 100//185
f 59//186 69//186 100//186 101//186
f 59//187 101//188 102//188 103//189
f 102//190 28//191 41//46 57//114 103//192
f 58//75 61//80 65//193 64//194
f 6//84 65//195 61//85
f 58//77 62//196 60//78
f 64//194 65//193 21//23 104//197
f 64//87 67//198 62//88
f 83//123 105//199 21//23
f 67//95 11//12 10//96
f 106//200 23//26 104//201 105//199
f 11//202 23//26 24//27
f 17//17 16//16 68//203 82//122
f 23//204 67//204 64//204 104//204
f 83//123 68//101 106//200 105//199
f 107//205 102//205 101//205 74//205
f 21//23 105//199 104//197
f 17//17 82//122 21//23
f 66//94 12//99 13//150
f 13//150 21//23 66//94
f 68//101 23//26 106//200
f 91//206 72//206 71//207 92//208
f 102//190 107//209 28//191
f 51//210 69//210 60//83 63//82
f 28//211 107//211 72//211 91//211
f 103//189 55//212 59//187
f 55//69 103//213 57//213 56//70
f 101//214 100//215 75//216 74//214
f 50//184 108//217 100//185
f 72//218 107//218 109//219 70//220
f 107//221 74//110 73//109 109//219
f 110//222 75//216 100//215 111//222
f 80//223 110//224 111//224 112//225
f 113//226 76//226 75//226 110//226
f 111//227 100//227 108//227 114//227
f 108//228 76//228 113//228 114//228
f 78//229 112//229 115//229 79//229
f 81//119 113//230 110//230 80//231
f 112//232 111//232 114//232 115//232
f 114//233 113//233 81//234 115//235
f 81//119 80//231 77//120
f 81//234 79//236 115//235
f 112//225 78//237 80//223
f 68//203 83//123 82//122
usemtl Bottom
f 94//163 32//165 116//238
f 117//239 34//239 118//239
f 119//240 117//240 118//240
f 36//40 94//163 116//238
f 109//219 120//241 70//220
f 121//242 122//242 71//242
f 123//243 122//243 121//243
f 73//109 120//241 109//219
f 124//244 50//244 93//244 38//244
f 125//245 126//245 124//245 38//245
f 92//154 127//246 118//246 34//152
f 119//247 125//247 116//247 117//247
f 117//248 116//248 32//36 34//38
f 128//249 126//249 125//249 119//249
f 118//250 127//250 128//250 119//250
f 36//251 116//251 125//251 38//251
f 108//252 50//252 124//252 76//252
f 129//253 76//253 124//253 126//253
f 122//254 127//254 92//208 71//207
f 120//255 129//255 123//255 121//255
f 70//106 120//256 121//256 71//107
f 129//257 126//257 128//257 123//257
f 122//258 123//258 128//258 127//258
f 73//259 76//259 129//259 120//259
